<svg id="Layer_2" data-name="Layer 2" xmlns="http://www.w3.org/2000/svg" viewBox="0 0 383.75 178.21"><title>lash-end-v1</title><path d="M308.25,397.77s13.22,17.71,44.14,23.21c36.11,6.42,65.56-3.46,65.56-3.46l16.73-14.24s-13.21,12.79-65.23,14C325.41,418.24,308.25,397.77,308.25,397.77Z" transform="translate(-308.25 -246.84)"/><path d="M320.26,380.78s12,18.57,42.46,26.15c35.59,8.85,65.65,1,65.65,1L446,394.88s-14,11.86-66,9.5C336,402.37,320.26,380.78,320.26,380.78Z" transform="translate(-308.25 -246.84)"/><path d="M328.87,364.24s10.31,19.55,40,29.78c34.68,11.94,65.31,6.76,65.31,6.76l18.74-11.47s-15,10.59-66.61,3.67C342.65,387.12,328.87,364.24,328.87,364.24Z" transform="translate(-308.25 -246.84)"/><path d="M339.5,348.92s8.77,20.29,37.58,32.77c33.65,14.58,64.59,11.78,64.59,11.78l19.56-10s-15.8,9.4-66.69-1.48C351.47,372.8,339.5,348.92,339.5,348.92Z" transform="translate(-308.25 -246.84)"/><path d="M353.49,331.77s6.61,21.09,34,36.51c31.95,18,63,18.44,63,18.44l20.5-7.89s-16.7,7.7-66.18-8.42C362.91,356.77,353.49,331.77,353.49,331.77Z" transform="translate(-308.25 -246.84)"/><path d="M368.11,314.43s4.09,21.72,29.45,40.24C427.17,376.3,458,380.38,458,380.38l21.28-5.44s-17.48,5.69-64.73-16.12C374.53,340.36,368.11,314.43,368.11,314.43Z" transform="translate(-308.25 -246.84)"/><path d="M385.18,299.53s1.6,22,24.69,43.32c27,24.85,57.1,32.4,57.1,32.4l21.76-3s-18,3.67-62.48-23.37C388.62,326,385.18,299.53,385.18,299.53Z" transform="translate(-308.25 -246.84)"/><path d="M403.44,284.51s-1.2,22.07,19,46.1c23.61,28.06,52.15,39.76,52.15,39.76l9.06-3.86s-16.93-4.27-45.73-27.83C403.85,310.79,403.44,284.51,403.44,284.51Z" transform="translate(-308.25 -246.84)"/><path d="M421.42,273.23s-3.62,21.8,13.82,47.91c20.38,30.49,47.46,45.26,47.46,45.26l9.43-2.83s-16.36-6.11-42.39-32.7C418.93,299.39,421.42,273.23,421.42,273.23Z" transform="translate(-308.25 -246.84)"/><path d="M440,264.74s-6,21.28,8.53,49.13C465.45,346.4,490.76,364,490.76,364l9.68-1.79s-15.6-7.85-38.58-37.11C434.67,290.48,440,264.74,440,264.74Z" transform="translate(-308.25 -246.84)"/><path d="M465.07,255s-9.42,20,.27,49.86c11.31,34.89,33.36,56.46,33.36,56.46l9.85-.16s-14.08-10.33-31.89-43C455.56,279.46,465.07,255,465.07,255Z" transform="translate(-308.25 -246.84)"/><path d="M481.81,250.84s-6.54,25.95,2.93,59.1a240.73,240.73,0,0,0,21.2,50.34l6-2.9A194.41,194.41,0,0,1,489.77,308C479.45,272.81,481.81,250.84,481.81,250.84Z" transform="translate(-308.25 -246.84)"/><path d="M499.63,246.84s-9,25.19-2.81,59.11a240.73,240.73,0,0,0,16.23,52.16l6.3-2.3A194.41,194.41,0,0,1,502,304.53C495.16,268.49,499.63,246.84,499.63,246.84Z" transform="translate(-308.25 -246.84)"/><path d="M412.2,425.05s30.32-47.94,85-64.63a228,228,0,0,1,58.1-9.33c18.63-.64,35.7-.1,35.7-.1v17s-12,0-27-.12c-16.33-.13-39.54,0-65,7.46C440.72,392.42,412.2,425.05,412.2,425.05Z" transform="translate(-308.25 -246.84)"/><rect x="282.75" y="104.16" width="101" height="17"/></svg>