<svg id="Layer_2" data-name="Layer 2" xmlns="http://www.w3.org/2000/svg" viewBox="0 0 383.75 178.21"><title>lash-end-v1-right</title><path d="M692,397.77S678.78,415.49,647.86,421c-36.11,6.42-65.56-3.46-65.56-3.46l-16.73-14.24s13.21,12.79,65.23,14C674.84,418.24,692,397.77,692,397.77Z" transform="translate(-308.25 -246.84)"/><path d="M680,380.78s-12,18.57-42.46,26.15c-35.59,8.85-65.65,1-65.65,1l-17.66-13.07s14,11.86,66,9.5C664.26,402.37,680,380.78,680,380.78Z" transform="translate(-308.25 -246.84)"/><path d="M671.38,364.24s-10.31,19.55-40,29.78c-34.68,11.94-65.31,6.76-65.31,6.76l-18.74-11.47s15,10.59,66.61,3.67C657.6,387.12,671.38,364.24,671.38,364.24Z" transform="translate(-308.25 -246.84)"/><path d="M660.75,348.92s-8.77,20.29-37.58,32.77c-33.65,14.58-64.59,11.78-64.59,11.78l-19.56-10s15.8,9.4,66.69-1.48C648.78,372.8,660.75,348.92,660.75,348.92Z" transform="translate(-308.25 -246.84)"/><path d="M646.76,331.77s-6.61,21.09-34,36.51c-31.95,18-63,18.44-63,18.44l-20.5-7.89s16.7,7.7,66.18-8.42C637.34,356.77,646.76,331.77,646.76,331.77Z" transform="translate(-308.25 -246.84)"/><path d="M632.14,314.43s-4.09,21.72-29.45,40.24c-29.62,21.63-60.41,25.71-60.41,25.71L521,374.94s17.48,5.69,64.73-16.12C625.72,340.36,632.14,314.43,632.14,314.43Z" transform="translate(-308.25 -246.84)"/><path d="M615.07,299.53s-1.6,22-24.69,43.32c-27,24.85-57.1,32.4-57.1,32.4l-21.76-3s18,3.67,62.48-23.37C611.63,326,615.07,299.53,615.07,299.53Z" transform="translate(-308.25 -246.84)"/><path d="M596.81,284.51s1.2,22.07-19,46.1c-23.61,28.06-52.15,39.76-52.15,39.76l-9.06-3.86s16.93-4.27,45.73-27.83C596.4,310.79,596.81,284.51,596.81,284.51Z" transform="translate(-308.25 -246.84)"/><path d="M578.83,273.23S582.46,295,565,321.14c-20.38,30.49-47.46,45.26-47.46,45.26l-9.43-2.83s16.36-6.11,42.39-32.7C581.32,299.39,578.83,273.23,578.83,273.23Z" transform="translate(-308.25 -246.84)"/><path d="M560.27,264.74s6,21.28-8.53,49.13C534.8,346.4,509.48,364,509.48,364l-9.68-1.79s15.6-7.85,38.58-37.11C565.58,290.48,560.27,264.74,560.27,264.74Z" transform="translate(-308.25 -246.84)"/><path d="M535.18,255s9.42,20-.27,49.86c-11.31,34.89-33.36,56.46-33.36,56.46l-9.85-.16s14.08-10.33,31.89-43C544.69,279.46,535.18,255,535.18,255Z" transform="translate(-308.25 -246.84)"/><path d="M518.44,250.84s6.54,25.95-2.93,59.1a240.73,240.73,0,0,1-21.2,50.34l-6-2.9A194.41,194.41,0,0,0,510.48,308C520.8,272.81,518.44,250.84,518.44,250.84Z" transform="translate(-308.25 -246.84)"/><path d="M500.62,246.84s9,25.19,2.81,59.11a240.73,240.73,0,0,1-16.23,52.16l-6.3-2.3a194.41,194.41,0,0,0,17.33-51.28C505.09,268.49,500.62,246.84,500.62,246.84Z" transform="translate(-308.25 -246.84)"/><path d="M588.05,425.05s-30.32-47.94-85-64.63a228,228,0,0,0-58.1-9.33c-18.63-.64-35.7-.1-35.7-.1v17s12,0,27-.12c16.33-.13,39.54,0,65,7.46C559.53,392.42,588.05,425.05,588.05,425.05Z" transform="translate(-308.25 -246.84)"/><rect x="308.25" y="351" width="101" height="17" transform="translate(409.25 472.16) rotate(180)"/></svg>