<?xml version="1.0" encoding="utf-8"?>
<!-- Generator: Adobe Illustrator 21.1.0, SVG Export Plug-In . SVG Version: 6.00 Build 0)  -->
<svg version="1.1" id="Layer_1" xmlns="http://www.w3.org/2000/svg" xmlns:xlink="http://www.w3.org/1999/xlink" x="0px" y="0px"
	 viewBox="0 0 93 58" style="enable-background:new 0 0 93 58;" xml:space="preserve">
<style type="text/css">
	.st0{fill:#FFFFFF;}
	.st1{fill:none;stroke:#FCFCFC;stroke-linecap:square;stroke-miterlimit:10;}
</style>
<title>logo-v4-white</title>
<g>
	<image style="overflow:visible;" width="33" height="32" xlink:href="CB568A5F.png"  transform="matrix(1 0 0 1 3 4.5)">
	</image>
	<g>
		<path class="st0" d="M16.8,26.8v-0.2c0.3,0,0.6-0.1,0.9-0.2c0.5-0.2,0.9-0.7,1-1.2c0.1-0.5,0.1-1,0.1-1.5v-1.9
			c0-0.3-0.1-0.6-0.2-0.9c-0.2-0.5-0.4-1-0.7-1.4l-2.5-3.8L14.9,15c-0.3-0.4-0.6-0.7-1-1c-0.2-0.1-0.3-0.2-0.5-0.2
			c-0.2,0-0.5-0.1-0.7-0.1v-0.2h6.4v0.2c-0.3,0-0.7,0.1-1,0.2c-0.4,0.1-0.6,0.5-0.5,0.8c0,0.2,0,0.3,0.1,0.5
			c0.1,0.2,0.2,0.5,0.4,0.7l2.6,4.1l2.3-3.6l0.3-0.4c0.2-0.3,0.3-0.7,0.4-1.1c0-0.4-0.1-0.7-0.4-1c-0.3-0.2-0.7-0.4-1.1-0.3v-0.1
			h4.5v0.2c-0.3,0-0.5,0.1-0.8,0.2c-0.2,0.1-0.4,0.2-0.6,0.4c-0.6,0.6-1.1,1.2-1.5,1.9l-2.2,3.4c-0.2,0.3-0.4,0.6-0.5,0.9
			c-0.1,0.3-0.1,0.7-0.1,1v2.4c0,0.5,0,1,0.1,1.5c0.1,0.3,0.2,0.6,0.4,0.8c0.4,0.4,1,0.6,1.5,0.6v0.2L16.8,26.8z"/>
	</g>
</g>
<g>
	<image style="overflow:visible;" width="29" height="28" xlink:href="CB568A5D.png"  transform="matrix(1 0 0 1 17 8.5)">
	</image>
	<g>
		<path class="st0" d="M26.8,22.7c0-1.1,0.4-2.1,1.2-2.8c1.7-1.9,4.6-2,6.5-0.3c0.1,0.1,0.2,0.2,0.3,0.3c1.6,1.5,1.6,4.1,0.1,5.6
			c-1.8,1.9-4.8,2-6.7,0.2c-0.1-0.1-0.1-0.1-0.2-0.2c-0.4-0.4-0.6-0.8-0.8-1.3C26.9,23.7,26.8,23.2,26.8,22.7z M28.6,22.6
			c0,1,0.2,2,0.8,2.9c0.4,0.8,1.2,1.3,2.1,1.3c0.4,0,0.7-0.1,1-0.3c0.3-0.2,0.6-0.5,0.9-0.8c0.3-0.4,0.5-0.9,0.7-1.4
			c0.1-0.5,0.2-1.1,0.2-1.6c0-0.5-0.1-1.1-0.2-1.6c-0.1-0.5-0.4-1-0.7-1.4c-0.4-0.7-1.2-1.1-2-1.1c-0.8,0-1.5,0.5-1.9,1.2
			C28.9,20.6,28.6,21.6,28.6,22.6L28.6,22.6z"/>
	</g>
</g>
<g>
	<image style="overflow:visible;" width="24" height="33" xlink:href="CB568A63.png"  transform="matrix(1 0 0 1 27 3.5)">
	</image>
	<g>
		<path class="st0" d="M37,13.4l2.8-0.4v11.6c0,0.3,0,0.7,0.1,1c0,0.2,0.2,0.4,0.3,0.5c0.3,0.2,0.6,0.4,1,0.4v0.2h-4.3v-0.2
			c0.3,0,0.6-0.1,0.8-0.2c0.2-0.1,0.3-0.3,0.4-0.5c0.1-0.2,0.1-0.4,0.2-0.7c0-0.3,0-0.7,0-1.3v-7.7c0-0.5,0-0.9,0-1.4
			c0-0.2-0.1-0.5-0.3-0.7c-0.1-0.2-0.2-0.3-0.4-0.4c-0.2-0.1-0.4-0.1-0.6-0.2V13.4z"/>
	</g>
</g>
<g>
	<image style="overflow:visible;" width="27" height="28" xlink:href="CB568A65.png"  transform="matrix(1 0 0 1 33 8.5)">
	</image>
	<g>
		<path class="st0" d="M50.1,25.9l0.2,0.1c-0.2,0.7-0.9,1.1-1.6,1c-0.4,0-0.8-0.1-1.2-0.3c-0.3-0.2-0.5-0.5-0.6-0.8
			c-0.3,0.3-0.6,0.5-1,0.8c-0.5,0.2-1,0.4-1.5,0.4c-0.6,0-1.2-0.1-1.7-0.5c-0.4-0.3-0.7-0.9-0.6-1.4c0-0.5,0.2-1,0.5-1.4
			c0.2-0.2,0.4-0.4,0.7-0.5c0.4-0.2,0.7-0.3,1.1-0.4c0.6-0.1,1-0.3,1.3-0.4c0.2-0.1,0.5-0.2,0.7-0.4c0.2-0.1,0.3-0.3,0.4-0.5
			c0.1-0.3,0.1-0.6,0.1-0.8c0-0.6-0.1-1.2-0.4-1.7c-0.1-0.2-0.3-0.3-0.5-0.4c-0.2-0.1-0.4-0.1-0.6-0.1c-0.3,0-0.5,0.1-0.7,0.2
			c-0.2,0.1-0.4,0.3-0.5,0.6L43.8,20c-0.1,0.3-0.4,0.5-0.7,0.5c-0.2,0-0.4-0.1-0.6-0.2c-0.1-0.1-0.2-0.3-0.2-0.6
			c0-0.3,0.2-0.6,0.7-0.8c0.3-0.1,0.6-0.2,1-0.3c0.4-0.1,0.7-0.1,1.1-0.1c0.4,0,0.8,0,1.2,0.1c0.4,0.1,0.8,0.2,1.1,0.4
			c0.4,0.2,0.7,0.5,0.8,0.9c0.1,0.3,0.1,0.7,0.1,1v3.7c0,0.4,0,0.8,0.1,1.3c0,0.4,0.4,0.7,0.8,0.7c0.2,0,0.3,0,0.5-0.1
			C49.8,26.2,50,26,50.1,25.9z M46.8,22c-0.4,0.3-0.7,0.6-1.2,0.8c-0.3,0.2-0.7,0.4-1,0.6c-0.2,0.1-0.4,0.3-0.5,0.5
			c-0.3,0.4-0.5,0.8-0.5,1.3c0,0.4,0.1,0.8,0.4,1.1c0.2,0.3,0.6,0.4,0.9,0.4c0.3,0,0.6-0.1,0.9-0.3c0.3-0.2,0.5-0.5,0.6-0.8
			c0.2-0.6,0.3-1.2,0.3-1.9L46.8,22z"/>
	</g>
</g>
<g>
	<image style="overflow:visible;" width="29" height="28" xlink:href="CB568A67.png"  transform="matrix(1 0 0 1 41 8.5)">
	</image>
	<g>
		<path class="st0" d="M53,18.4c0.1,0.3,0.1,0.7,0.1,1.1v0.2c0.7-0.8,1.8-1.2,2.9-1.2c0.7,0,1.4,0.2,2,0.6c0.5,0.4,0.8,1,0.8,1.6
			v4.1c0,0.3,0,0.7,0.1,1c0,0.2,0.2,0.4,0.3,0.5c0.3,0.2,0.6,0.4,1,0.4v0.2h-4.3v-0.2c0.3,0,0.6-0.1,0.8-0.2
			c0.2-0.1,0.3-0.3,0.4-0.5c0.1-0.2,0.1-0.4,0.2-0.7c0-0.3,0-0.7,0-1.3v-2.1c0-0.5,0-1-0.1-1.6c0-0.3-0.1-0.5-0.2-0.8
			c-0.2-0.2-0.4-0.4-0.6-0.5c-0.3-0.1-0.6-0.2-0.9-0.2c-0.3,0-0.7,0.1-1,0.2c-0.3,0.1-0.6,0.3-0.8,0.6c-0.2,0.3-0.3,0.6-0.4,0.9
			c-0.1,0.5-0.1,1.1-0.1,1.6v2.6c0,0.3,0,0.7,0.1,1c0,0.2,0.2,0.4,0.3,0.5c0.3,0.2,0.6,0.4,1,0.4v0.2h-4.4v-0.2
			c0.3,0,0.6-0.1,0.8-0.2c0.2-0.1,0.3-0.3,0.4-0.5c0.1-0.2,0.1-0.4,0.2-0.7c0-0.3,0-0.7,0-1.3v-2.4c0-0.5,0-0.9,0-1.4
			c0-0.2-0.1-0.5-0.2-0.7c-0.1-0.2-0.2-0.3-0.4-0.4c-0.2-0.1-0.4-0.1-0.7-0.1v-0.2L53,18.4z"/>
	</g>
</g>
<g>
	<image style="overflow:visible;" width="28" height="33" xlink:href="CB568A64.png"  transform="matrix(1 0 0 1 52 3.5)">
	</image>
	<g>
		<path class="st0" d="M67.7,27.1c-0.1-0.3-0.1-0.7-0.1-1c-0.4,0.3-0.9,0.5-1.4,0.7C65.8,27,65.4,27,64.9,27c-0.9,0-1.8-0.3-2.5-0.9
			c-0.4-0.4-0.8-0.9-1-1.4c-0.3-0.6-0.4-1.3-0.4-1.9c0-0.7,0.1-1.4,0.4-2c0.2-0.6,0.6-1.1,1.1-1.5c0.7-0.6,1.7-1,2.6-0.9
			c0.4,0,0.9,0.1,1.3,0.2c0.4,0.2,0.9,0.5,1.2,0.8v-3.6c0-0.5-0.1-1.1-0.3-1.5c-0.3-0.3-0.7-0.5-1.2-0.5v-0.2l3-0.4v11.3
			c0,0.5,0.1,1.1,0.3,1.6c0.3,0.3,0.7,0.5,1.2,0.5v0.2L67.7,27.1z M67.6,22.6c0-0.7,0-1.3-0.1-2c-0.1-0.4-0.2-0.8-0.4-1.1
			c-0.2-0.3-0.4-0.5-0.7-0.6c-0.3-0.1-0.6-0.2-0.9-0.2c-0.7,0-1.4,0.4-1.8,1c-0.3,0.4-0.6,0.9-0.7,1.4c-0.2,0.5-0.3,1.1-0.3,1.7
			c0,0.6,0.1,1.1,0.2,1.6c0.1,0.5,0.4,1,0.7,1.4c0.4,0.6,1.1,1,1.8,1c0.3,0,0.7-0.1,1-0.3c0.3-0.2,0.6-0.4,0.7-0.7
			c0.2-0.4,0.4-0.8,0.4-1.2C67.6,24,67.6,23.3,67.6,22.6L67.6,22.6z"/>
	</g>
</g>
<g>
	<image style="overflow:visible;" width="27" height="28" xlink:href="CB568A6C.png"  transform="matrix(1 0 0 1 62 8.5)">
	</image>
	<g>
		<path class="st0" d="M79.5,25.9l0.2,0.1c-0.2,0.7-0.9,1.1-1.6,1c-0.4,0-0.8-0.1-1.2-0.3c-0.3-0.2-0.5-0.5-0.6-0.8
			c-0.3,0.3-0.6,0.5-1,0.8c-0.5,0.2-1,0.4-1.5,0.4c-0.6,0-1.2-0.1-1.7-0.5c-0.4-0.3-0.7-0.9-0.6-1.4c0-0.5,0.2-1,0.5-1.4
			c0.2-0.2,0.4-0.4,0.7-0.5c0.4-0.2,0.7-0.3,1.1-0.4c0.6-0.1,1-0.3,1.2-0.4c0.2-0.1,0.5-0.2,0.7-0.4c0.2-0.1,0.3-0.3,0.4-0.5
			c0.1-0.3,0.1-0.6,0.1-0.8c0-0.6-0.1-1.2-0.4-1.7c-0.1-0.2-0.3-0.3-0.5-0.4c-0.2-0.1-0.4-0.1-0.6-0.1c-0.5,0-1,0.3-1.2,0.8
			l-0.2,0.6c-0.1,0.3-0.4,0.5-0.7,0.5c-0.2,0-0.4-0.1-0.6-0.2c-0.1-0.1-0.2-0.3-0.2-0.6c0-0.3,0.2-0.6,0.7-0.8
			c0.3-0.1,0.6-0.2,0.9-0.3c0.4-0.1,0.7-0.1,1.1-0.1c0.4,0,0.8,0,1.3,0.1c0.4,0.1,0.8,0.2,1.1,0.4c0.4,0.2,0.7,0.5,0.8,0.9
			c0.1,0.3,0.1,0.7,0.1,1v3.7c0,0.4,0,0.8,0.1,1.3c0,0.4,0.4,0.7,0.8,0.7c0.2,0,0.3,0,0.5-0.1C79.2,26.2,79.4,26,79.5,25.9z
			 M76.3,22c-0.4,0.3-0.7,0.6-1.2,0.8c-0.3,0.2-0.7,0.4-1,0.6c-0.2,0.1-0.4,0.3-0.5,0.5c-0.3,0.4-0.5,0.8-0.5,1.3
			c0,0.4,0.1,0.8,0.4,1.1c0.2,0.3,0.6,0.4,0.9,0.4c0.3,0,0.6-0.1,0.9-0.3c0.3-0.2,0.5-0.5,0.6-0.8c0.2-0.6,0.3-1.2,0.3-1.9L76.3,22z
			"/>
	</g>
</g>
<g>
	<image style="overflow:visible;" width="32" height="32" xlink:href="CB568A6D.png"  transform="matrix(1 0 0 1 7 21.5)">
	</image>
	<g>
		<path class="st0" d="M22,31.4c-0.4,0-0.9,0-1.3,0c-0.8,0-1.5,0.1-2.2,0.4c-0.5,0.2-0.9,0.5-1.2,1c-0.3,0.6-0.6,1.2-0.7,1.9h-0.2
			l0.2-3.6h13.3l0.2,3.6h-0.2c-0.1-0.7-0.4-1.4-0.8-2.1c-0.4-0.5-1-0.8-1.6-1c-1-0.2-2-0.3-3.1-0.3v10c0,0.5,0,1,0.1,1.5
			c0.1,0.5,0.5,1,1,1.2c0.3,0.1,0.6,0.2,0.9,0.2v0.3H20v-0.2c0.3,0,0.6-0.1,0.9-0.2c0.5-0.2,0.9-0.7,1-1.2c0.1-0.5,0.1-1,0.1-1.5
			V31.4z"/>
	</g>
</g>
<g>
	<image style="overflow:visible;" width="26" height="27" xlink:href="CB568A6F.png"  transform="matrix(1 0 0 1 21 26.5)">
	</image>
	<g>
		<path class="st0" d="M33.1,37.5c0.2-0.4,0.5-0.7,0.8-0.9c0.5-0.4,1.2-0.6,1.8-0.6c0.4,0,0.7,0.1,1,0.3c0.2,0.1,0.3,0.4,0.3,0.6
			c0,0.2-0.1,0.3-0.2,0.5c-0.1,0.1-0.3,0.2-0.5,0.2c-0.2,0-0.4-0.1-0.6-0.3l-0.3-0.3c-0.2-0.2-0.5-0.4-0.8-0.4c-0.4,0-0.8,0.3-1,0.9
			c-0.3,0.8-0.4,1.6-0.4,2.4v2.6c0,0.3,0,0.7,0.1,1c0,0.2,0.2,0.4,0.3,0.5c0.3,0.2,0.6,0.4,1,0.4v0.2h-4.4v-0.2
			c0.3,0,0.6-0.1,0.8-0.2c0.2-0.1,0.3-0.3,0.4-0.5c0.1-0.2,0.1-0.4,0.1-0.7c0-0.3,0-0.7,0-1.3v-2.4c0-0.5,0-0.9,0-1.4
			c0-0.2-0.1-0.5-0.2-0.7c-0.1-0.2-0.2-0.3-0.4-0.4c-0.2-0.1-0.4-0.1-0.7-0.2v-0.2l2.5-0.3C33,36.5,33.1,37,33.1,37.5z"/>
	</g>
</g>
<g>
	<image style="overflow:visible;" width="28" height="28" xlink:href="6381FFCC.png"  transform="matrix(1 0 0 1 28 26.5)">
	</image>
	<g>
		<path class="st0" d="M44.3,44.6c-0.1-0.4-0.1-0.8-0.1-1.2c-0.8,0.8-1.8,1.2-2.9,1.2c-0.7,0-1.4-0.2-2-0.6c-0.5-0.4-0.8-1-0.7-1.7
			v-4.1c0-0.3,0-0.7-0.1-1c0-0.2-0.1-0.4-0.3-0.5c-0.3-0.2-0.6-0.4-1-0.4v-0.2H40v5c0,0.5,0,1,0.1,1.5c0,0.3,0.1,0.6,0.3,0.8
			c0.2,0.2,0.4,0.4,0.6,0.5c0.3,0.1,0.6,0.2,0.9,0.2c0.3,0,0.7-0.1,1-0.2c0.3-0.1,0.6-0.3,0.8-0.6c0.2-0.3,0.3-0.6,0.4-0.9
			c0.1-0.5,0.1-1.1,0.1-1.6v-2.6c0-0.3,0-0.7-0.1-1c0-0.2-0.1-0.4-0.3-0.5c-0.3-0.2-0.6-0.4-1-0.4v-0.2h2.9v5.4c0,0.5,0,0.9,0,1.4
			c0,0.2,0.1,0.5,0.2,0.7c0.1,0.2,0.2,0.3,0.4,0.4c0.2,0.1,0.4,0.1,0.7,0.2v0.2L44.3,44.6z"/>
	</g>
</g>
<g>
	<image style="overflow:visible;" width="28" height="28" xlink:href="6381FFCB.png"  transform="matrix(1 0 0 1 38 26.5)">
	</image>
	<g>
		<path class="st0" d="M47.8,40.3c0-1.1,0.4-2.1,1.2-2.8c1.7-1.9,4.6-2,6.5-0.3c0.1,0.1,0.2,0.2,0.3,0.3c1.6,1.5,1.6,4,0.1,5.6
			c-1.8,1.9-4.8,2-6.7,0.2c-0.1-0.1-0.1-0.1-0.2-0.2c-0.4-0.4-0.6-0.8-0.8-1.3C47.9,41.3,47.8,40.8,47.8,40.3z M49.6,40.2
			c0,1,0.2,2,0.8,2.9c0.4,0.8,1.2,1.3,2.1,1.3c0.4,0,0.7-0.1,1-0.3c0.3-0.2,0.6-0.5,0.9-0.8c0.3-0.4,0.5-0.9,0.6-1.4
			c0.1-0.5,0.2-1.1,0.2-1.6c0-0.5-0.1-1.1-0.3-1.6c-0.1-0.5-0.4-1-0.7-1.4c-0.4-0.7-1.2-1.1-2-1.1c-0.8,0-1.5,0.5-1.9,1.2
			C49.8,38.2,49.5,39.2,49.6,40.2L49.6,40.2z"/>
	</g>
</g>
<g>
	<image style="overflow:visible;" width="29" height="27" xlink:href="6381FFC4.png"  transform="matrix(1 0 0 1 48 26.5)">
	</image>
	<g>
		<path class="st0" d="M60.6,36c0.1,0.3,0.1,0.7,0.1,1.1v0.2c0.7-0.8,1.8-1.2,2.9-1.2c0.7,0,1.4,0.2,2,0.6c0.5,0.4,0.8,1,0.8,1.6
			v4.1c0,0.3,0,0.7,0.1,1c0,0.2,0.2,0.4,0.3,0.5c0.3,0.2,0.6,0.4,1,0.4v0.2h-4.3v-0.2c0.3,0,0.6-0.1,0.8-0.2
			c0.2-0.1,0.3-0.3,0.4-0.5c0.1-0.2,0.1-0.4,0.2-0.7c0-0.3,0-0.7,0-1.3v-2.1c0-0.5,0-1-0.1-1.6c0-0.3-0.1-0.6-0.3-0.8
			c-0.2-0.2-0.4-0.4-0.6-0.5c-0.3-0.1-0.6-0.2-0.9-0.2c-0.3,0-0.7,0.1-1,0.2c-0.3,0.1-0.6,0.3-0.8,0.6c-0.2,0.3-0.3,0.6-0.4,0.9
			c-0.1,0.5-0.1,1.1-0.1,1.6v2.6c0,0.3,0,0.7,0.1,1c0,0.2,0.2,0.4,0.3,0.5c0.3,0.2,0.6,0.4,1,0.4v0.2h-4.3v-0.2
			c0.3,0,0.6-0.1,0.8-0.2c0.2-0.1,0.3-0.3,0.4-0.5c0.1-0.2,0.1-0.4,0.2-0.7c0-0.3,0-0.7,0-1.3v-2.4c0-0.5,0-0.9,0-1.4
			c0-0.2-0.1-0.5-0.2-0.7c-0.1-0.2-0.2-0.3-0.4-0.4c-0.2-0.1-0.4-0.1-0.7-0.2v-0.2L60.6,36z"/>
	</g>
</g>
<g>
	<image style="overflow:visible;" width="27" height="32" xlink:href="6381FFC7.png"  transform="matrix(1 0 0 1 59 26.5)">
	</image>
	<g>
		<path class="st0" d="M69,47.5h2.6c0.7,0.1,1.5,0,2.1-0.3c0.5-0.3,0.8-0.9,0.8-1.5c0-0.4-0.2-0.9-0.6-1.1c-0.5-0.3-1-0.4-1.5-0.4
			h-1.5c-0.5,0-1.1-0.1-1.5-0.5c-0.4-0.3-0.6-0.7-0.6-1.1c0-0.5,0.2-0.9,0.6-1.1c0.4-0.2,0.8-0.3,1.2-0.4c-0.5-0.2-1-0.6-1.3-1
			c-0.3-0.4-0.5-0.9-0.5-1.4c0-0.7,0.3-1.3,0.7-1.8c0.6-0.6,1.4-1,2.2-1c0.7,0,1.4,0.3,1.9,0.7c0.3-0.2,0.5-0.4,0.8-0.5
			c0.3-0.1,0.5-0.2,0.8-0.2c0.3,0,0.5,0.1,0.8,0.2c0.2,0.1,0.3,0.4,0.3,0.6c0,0.1,0,0.3-0.1,0.4c-0.1,0.1-0.2,0.2-0.3,0.1
			c-0.2,0-0.4-0.1-0.6-0.3l-0.2-0.3c-0.1-0.2-0.3-0.2-0.5-0.2c-0.3,0-0.6,0.1-0.8,0.4c0.5,0.6,0.8,1.3,0.8,2c0,0.8-0.4,1.6-1.1,2
			c-0.4,0.2-0.8,0.4-1.2,0.5l-1.2,0.1c-1,0.1-1.4,0.3-1.4,0.8c0,0.5,0.4,0.7,1.2,0.6h1.6c0.5,0,1,0,1.4,0.2c0.4,0.1,0.7,0.2,1.1,0.4
			c0.7,0.5,1,1.4,0.9,2.2c0,0.8-0.3,1.5-1,2c-0.9,0.6-1.9,0.9-3,0.8H69 M70.3,38.8c0,0.6,0.1,1.2,0.4,1.7c0.2,0.4,0.7,0.7,1.1,0.7
			c0.5,0,0.9-0.2,1.1-0.7c0.3-0.6,0.4-1.2,0.4-1.8c0-0.7-0.1-1.4-0.5-1.9c-0.2-0.3-0.6-0.6-1-0.5c-0.5,0-0.9,0.3-1.1,0.7
			c-0.2,0.3-0.3,0.6-0.3,0.9C70.3,38.1,70.2,38.5,70.3,38.8L70.3,38.8z"/>
	</g>
</g>
<g>
	<image style="overflow:visible;" width="79" height="19" xlink:href="6381FFC5.png"  transform="matrix(1 0 0 1 0 38.5)">
	</image>
	<g>
		<line class="st1" x1="9.5" y1="48" x2="69" y2="48"/>
	</g>
</g>
<g>
	<image style="overflow:visible;" width="19" height="57" xlink:href="6381FFDB.png"  transform="matrix(1 0 0 1 0 0.5)">
	</image>
	<g>
		<line class="st1" x1="9.5" y1="48" x2="9.5" y2="10"/>
	</g>
</g>
<g>
	<image style="overflow:visible;" width="93" height="19" xlink:href="6381FFDC.png"  transform="matrix(1 0 0 1 0 0.5)">
	</image>
	<g>
		<line class="st1" x1="9.5" y1="10" x2="83.5" y2="10"/>
	</g>
</g>
<g>
	<image style="overflow:visible;" width="19" height="57" xlink:href="6381FFDF.png"  transform="matrix(1 0 0 1 74 0.5)">
	</image>
	<g>
		<line class="st1" x1="83.5" y1="48" x2="83.5" y2="10"/>
	</g>
</g>
<g>
	<image style="overflow:visible;" width="23" height="19" xlink:href="6381FFDD.png"  transform="matrix(1 0 0 1 70 38.5)">
	</image>
	<g>
		<line class="st1" x1="79.5" y1="48" x2="83.5" y2="48"/>
	</g>
</g>
</svg>
