<svg id="Layer_1" data-name="Layer 1" xmlns="http://www.w3.org/2000/svg" viewBox="0 0 46 25"><defs><style>.cls-1{fill:none;stroke:#000;stroke-linecap:square;stroke-miterlimit:10;}</style></defs><title>logo-3</title><path d="M8.31,18v-.13a1.93,1.93,0,0,0,.54-.09A1,1,0,0,0,9.47,17a4.45,4.45,0,0,0,.06-.89V15a1.74,1.74,0,0,0-.1-.54A3.78,3.78,0,0,0,9,13.58L7.47,11.31,7.2,10.9a1.91,1.91,0,0,0-.59-.61,1,1,0,0,0-.29-.12,2.29,2.29,0,0,0-.41,0V10H9.73v.13a2.34,2.34,0,0,0-.62.09.51.51,0,0,0-.33.51.78.78,0,0,0,.07.3,3.21,3.21,0,0,0,.24.43l1.59,2.48L12,11.81l.15-.24a1.24,1.24,0,0,0,.22-.67.72.72,0,0,0-.24-.58,1,1,0,0,0-.67-.21V10h2.7v.13a1.84,1.84,0,0,0-.47.1,1.18,1.18,0,0,0-.33.22,6.29,6.29,0,0,0-.88,1.12l-1.34,2a2.49,2.49,0,0,0-.29.53,2.17,2.17,0,0,0-.05.57v1.44a4.58,4.58,0,0,0,.06.9,1,1,0,0,0,.25.47,1.21,1.21,0,0,0,.92.34V18Z" transform="translate(-3 -7)"/><path d="M14.35,15.51a2.4,2.4,0,0,1,.7-1.69,2.76,2.76,0,0,1,4.08,0,2.41,2.41,0,0,1,0,3.37,2.84,2.84,0,0,1-4.15,0,2.55,2.55,0,0,1-.5-.79A2.38,2.38,0,0,1,14.35,15.51Zm1.07-.07a3.12,3.12,0,0,0,.46,1.73,1.49,1.49,0,0,0,1.26.79,1.2,1.2,0,0,0,.62-.18,1.63,1.63,0,0,0,.52-.49,2.75,2.75,0,0,0,.37-.82,3.49,3.49,0,0,0,.14-1,3.3,3.3,0,0,0-.15-1,2.87,2.87,0,0,0-.4-.84A1.42,1.42,0,0,0,17,13a1.38,1.38,0,0,0-1.14.7A2.9,2.9,0,0,0,15.42,15.44Z" transform="translate(-3 -7)"/><path d="M20.43,10l1.69-.21v7a2.6,2.6,0,0,0,0,.58.61.61,0,0,0,.18.31,1.21,1.21,0,0,0,.6.24V18H20.36v-.12a1.53,1.53,0,0,0,.5-.13.6.6,0,0,0,.25-.29A1.27,1.27,0,0,0,21.2,17q0-.27,0-.79V11.65a8.19,8.19,0,0,0,0-.84.92.92,0,0,0-.13-.4.6.6,0,0,0-.24-.23,1.09,1.09,0,0,0-.4-.09Z" transform="translate(-3 -7)"/><path d="M28.28,17.41l.1.06a.91.91,0,0,1-1,.62,1.13,1.13,0,0,1-.69-.21,1.55,1.55,0,0,1-.37-.47,3.77,3.77,0,0,1-.59.46,1.8,1.8,0,0,1-.89.21,1.57,1.57,0,0,1-1-.31,1,1,0,0,1-.38-.84,1.14,1.14,0,0,1,.31-.81,1.38,1.38,0,0,1,.4-.29,3.87,3.87,0,0,1,.66-.22c.34-.09.59-.16.75-.22a1.57,1.57,0,0,0,.41-.21.71.71,0,0,0,.26-.32,1.44,1.44,0,0,0,.07-.5,1.58,1.58,0,0,0-.26-1,.85.85,0,0,0-.3-.23.88.88,0,0,0-.38-.09.76.76,0,0,0-.43.12.75.75,0,0,0-.28.34l-.15.34a.42.42,0,0,1-.42.28.46.46,0,0,1-.33-.13.44.44,0,0,1-.13-.33q0-.3.42-.5a2.56,2.56,0,0,1,.57-.17,3.37,3.37,0,0,1,.66-.07A3.27,3.27,0,0,1,26,13a2.6,2.6,0,0,1,.66.24.93.93,0,0,1,.48.56,2.59,2.59,0,0,1,0,.59v2.17a3.9,3.9,0,0,0,0,.75.47.47,0,0,0,.48.42.53.53,0,0,0,.28-.06A1,1,0,0,0,28.28,17.41ZM26.34,15.1a4,4,0,0,1-.7.46,6,6,0,0,0-.59.35,1.56,1.56,0,0,0-.3.28,1.22,1.22,0,0,0-.27.79,1,1,0,0,0,.21.64.68.68,0,0,0,.54.25.92.92,0,0,0,.54-.18,1.1,1.1,0,0,0,.38-.48,2.8,2.8,0,0,0,.18-1.14Z" transform="translate(-3 -7)"/><path d="M30.06,12.91a2.69,2.69,0,0,1,.08.64v.09a2.36,2.36,0,0,1,1.73-.73,1.93,1.93,0,0,1,1.21.35,1.17,1.17,0,0,1,.45,1v2.48a2.59,2.59,0,0,0,0,.58.61.61,0,0,0,.18.31,1.21,1.21,0,0,0,.6.24V18H31.77v-.12a1.52,1.52,0,0,0,.5-.13.6.6,0,0,0,.25-.29,1.27,1.27,0,0,0,.09-.41q0-.27,0-.78V15a7.11,7.11,0,0,0,0-.94,1.15,1.15,0,0,0-.17-.48.88.88,0,0,0-.39-.32,1.32,1.32,0,0,0-.55-.11,1.46,1.46,0,0,0-.61.13,1.12,1.12,0,0,0-.45.35,1.27,1.27,0,0,0-.23.53,6,6,0,0,0-.06,1v1.58a2.6,2.6,0,0,0,0,.58.61.61,0,0,0,.18.31,1.21,1.21,0,0,0,.6.24V18H28.39v-.12a1.53,1.53,0,0,0,.5-.13.6.6,0,0,0,.25-.29,1.26,1.26,0,0,0,.09-.4q0-.27,0-.78V14.81a8.15,8.15,0,0,0,0-.84.91.91,0,0,0-.13-.39.62.62,0,0,0-.24-.24,1.06,1.06,0,0,0-.4-.09v-.12Z" transform="translate(-3 -7)"/><path d="M38.89,18.18a3.16,3.16,0,0,1-.06-.62A3.45,3.45,0,0,1,38,18a2.67,2.67,0,0,1-.82.12,2.28,2.28,0,0,1-1.52-.53,2.21,2.21,0,0,1-.62-.85,2.85,2.85,0,0,1-.22-1.12,3,3,0,0,1,.23-1.19,2.44,2.44,0,0,1,.66-.91,2.38,2.38,0,0,1,1.58-.56,2,2,0,0,1,.76.13,3.12,3.12,0,0,1,.74.47V11.34a1.54,1.54,0,0,0-.21-.92.83.83,0,0,0-.7-.28V10l1.8-.23v6.78a1.6,1.6,0,0,0,.21.94.82.82,0,0,0,.7.28v.15Zm-.08-2.73a7.8,7.8,0,0,0-.07-1.22,1.62,1.62,0,0,0-.25-.67,1.13,1.13,0,0,0-.42-.36,1.19,1.19,0,0,0-.55-.13,1.34,1.34,0,0,0-1.08.59,2.65,2.65,0,0,0-.43.84,3.3,3.3,0,0,0-.15,1,3.42,3.42,0,0,0,.15,1,2.75,2.75,0,0,0,.4.83,1.3,1.3,0,0,0,1.07.6,1.17,1.17,0,0,0,.58-.15,1.21,1.21,0,0,0,.44-.42,1.9,1.9,0,0,0,.25-.69A7.61,7.61,0,0,0,38.81,15.45Z" transform="translate(-3 -7)"/><path d="M45.94,17.41l.1.06a.91.91,0,0,1-1,.62,1.13,1.13,0,0,1-.69-.21,1.56,1.56,0,0,1-.38-.47,3.82,3.82,0,0,1-.59.46,1.8,1.8,0,0,1-.89.21,1.56,1.56,0,0,1-1-.31,1,1,0,0,1-.38-.84,1.14,1.14,0,0,1,.31-.81,1.38,1.38,0,0,1,.4-.29,3.87,3.87,0,0,1,.66-.22q.51-.13.75-.22a1.56,1.56,0,0,0,.41-.21.71.71,0,0,0,.26-.32,1.44,1.44,0,0,0,.07-.5,1.58,1.58,0,0,0-.26-1,.84.84,0,0,0-.3-.23A.88.88,0,0,0,43,13a.76.76,0,0,0-.43.12.75.75,0,0,0-.28.34l-.15.34a.42.42,0,0,1-.42.28.46.46,0,0,1-.33-.13.44.44,0,0,1-.13-.33q0-.3.42-.5a2.55,2.55,0,0,1,.57-.17,3.36,3.36,0,0,1,.66-.07,3.26,3.26,0,0,1,.76.09,2.61,2.61,0,0,1,.66.24.93.93,0,0,1,.48.56,2.59,2.59,0,0,1,0,.59v2.17a3.9,3.9,0,0,0,0,.75.47.47,0,0,0,.48.42.53.53,0,0,0,.28-.06A1,1,0,0,0,45.94,17.41ZM44,15.1a3.91,3.91,0,0,1-.7.46,6.13,6.13,0,0,0-.59.35,1.55,1.55,0,0,0-.3.28,1.22,1.22,0,0,0-.27.79,1,1,0,0,0,.21.64.68.68,0,0,0,.54.25.92.92,0,0,0,.54-.18,1.11,1.11,0,0,0,.38-.48A2.82,2.82,0,0,0,44,16.08Z" transform="translate(-3 -7)"/><path d="M11.48,21.56l-.79,0a4.35,4.35,0,0,0-1.34.23,1.57,1.57,0,0,0-.73.63,3.25,3.25,0,0,0-.4,1.11H8.07l.11-2.16H16.1l.11,2.16h-.13a2.82,2.82,0,0,0-.5-1.23,1.86,1.86,0,0,0-1-.6,7.45,7.45,0,0,0-1.85-.16v6a4.27,4.27,0,0,0,.07.89,1,1,0,0,0,.62.72,1.9,1.9,0,0,0,.54.09v.13H10.24v-.13a1.92,1.92,0,0,0,.55-.09,1,1,0,0,0,.62-.72,4.26,4.26,0,0,0,.07-.89Z" transform="translate(-3 -7)"/><path d="M18.1,25.21a1.7,1.7,0,0,1,.47-.56,1.86,1.86,0,0,1,1.11-.35.87.87,0,0,1,.58.17.47.47,0,0,1,.18.38.36.36,0,0,1-.11.27.38.38,0,0,1-.28.11.45.45,0,0,1-.35-.16l-.18-.2a.68.68,0,0,0-.51-.23q-.4,0-.62.51a3.71,3.71,0,0,0-.22,1.43v1.54a2.6,2.6,0,0,0,0,.58.61.61,0,0,0,.18.31,1.21,1.21,0,0,0,.6.24v.12H16.42v-.12a1.52,1.52,0,0,0,.5-.13.61.61,0,0,0,.25-.29,1.26,1.26,0,0,0,.09-.41c0-.18,0-.44,0-.78V26.21a8.14,8.14,0,0,0,0-.84.91.91,0,0,0-.13-.39.61.61,0,0,0-.24-.24,1,1,0,0,0-.4-.09v-.12L18,24.31A4.93,4.93,0,0,1,18.1,25.21Z" transform="translate(-3 -7)"/><path d="M24.81,29.48a3.49,3.49,0,0,1-.08-.73,2.37,2.37,0,0,1-1.73.73,1.83,1.83,0,0,1-1.18-.36,1.21,1.21,0,0,1-.43-1V25.65a2.56,2.56,0,0,0,0-.58.67.67,0,0,0-.18-.31,1.22,1.22,0,0,0-.61-.23V24.4h1.72v3a7.08,7.08,0,0,0,0,.93,1.32,1.32,0,0,0,.16.5.87.87,0,0,0,.37.31,1.24,1.24,0,0,0,.54.11,1.48,1.48,0,0,0,.61-.13,1.1,1.1,0,0,0,.45-.35,1.26,1.26,0,0,0,.23-.53,6,6,0,0,0,.06-1V25.65a2.72,2.72,0,0,0,0-.58.63.63,0,0,0-.18-.31,1.19,1.19,0,0,0-.61-.23V24.4h1.72v3.18a7.39,7.39,0,0,0,0,.85,1,1,0,0,0,.13.39.66.66,0,0,0,.25.24,1,1,0,0,0,.4.09v.12Z" transform="translate(-3 -7)"/><path d="M26.93,26.91a2.4,2.4,0,0,1,.7-1.69,2.76,2.76,0,0,1,4.08,0,2.41,2.41,0,0,1,0,3.37,2.84,2.84,0,0,1-4.15,0,2.55,2.55,0,0,1-.5-.79A2.38,2.38,0,0,1,26.93,26.91ZM28,26.84a3.12,3.12,0,0,0,.46,1.73,1.49,1.49,0,0,0,1.26.79,1.2,1.2,0,0,0,.62-.18,1.62,1.62,0,0,0,.52-.49,2.75,2.75,0,0,0,.37-.82,3.49,3.49,0,0,0,.14-1,3.3,3.3,0,0,0-.15-1,2.88,2.88,0,0,0-.4-.84,1.42,1.42,0,0,0-1.18-.66,1.38,1.38,0,0,0-1.14.7A2.9,2.9,0,0,0,28,26.84Z" transform="translate(-3 -7)"/><path d="M34.61,24.31a2.68,2.68,0,0,1,.08.64V25a2.35,2.35,0,0,1,1.73-.73,1.93,1.93,0,0,1,1.21.35,1.16,1.16,0,0,1,.45,1v2.48a2.6,2.6,0,0,0,0,.58.61.61,0,0,0,.18.31,1.21,1.21,0,0,0,.6.24v.12H36.32v-.12a1.52,1.52,0,0,0,.5-.13.61.61,0,0,0,.25-.29,1.28,1.28,0,0,0,.09-.41c0-.18,0-.44,0-.78V26.41a7.12,7.12,0,0,0,0-.94A1.15,1.15,0,0,0,37,25a.88.88,0,0,0-.39-.32,1.32,1.32,0,0,0-.55-.11,1.46,1.46,0,0,0-.61.13A1.12,1.12,0,0,0,35,25a1.27,1.27,0,0,0-.23.53,6,6,0,0,0-.06,1v1.58a2.6,2.6,0,0,0,0,.58.61.61,0,0,0,.18.31,1.21,1.21,0,0,0,.6.24v.12H32.94v-.12a1.52,1.52,0,0,0,.5-.13.61.61,0,0,0,.25-.29,1.26,1.26,0,0,0,.09-.41c0-.18,0-.44,0-.78V26.21a8.14,8.14,0,0,0,0-.84.91.91,0,0,0-.13-.39.61.61,0,0,0-.24-.24,1,1,0,0,0-.4-.09v-.12Z" transform="translate(-3 -7)"/><path d="M41,31a3.56,3.56,0,0,0,1.6-.18c.32-.22.38-.3.38-.66a.77.77,0,0,0-.32-.67,1.56,1.56,0,0,0-.92-.23h-.93a1.48,1.48,0,0,1-.93-.27.83.83,0,0,1-.36-.68.74.74,0,0,1,.39-.66,3.12,3.12,0,0,1,.73-.25,2,2,0,0,1-.79-.62,1.39,1.39,0,0,1-.28-.84A1.49,1.49,0,0,1,40,24.89a1.86,1.86,0,0,1,1.33-.58,2,2,0,0,1,1.15.4,2.18,2.18,0,0,1,.5-.31,1.24,1.24,0,0,1,.48-.09.79.79,0,0,1,.46.12.45.45,0,0,1,.21.38.32.32,0,0,1-.08.23.27.27,0,0,1-.21.09.43.43,0,0,1-.34-.2l-.13-.18a.38.38,0,0,0-.32-.14.7.7,0,0,0-.46.22,1.87,1.87,0,0,1,.48,1.2,1.38,1.38,0,0,1-.68,1.21,2,2,0,0,1-.73.3l-.75.06q-.86.05-.86.48t.73.38h1a3.5,3.5,0,0,1,.86.09,1.79,1.79,0,0,1,.62.28,1.45,1.45,0,0,1,.58,1.3,1.43,1.43,0,0,1-.71,1.43A3.93,3.93,0,0,1,41,32m-.6-6a1.82,1.82,0,0,0,.27,1,.79.79,0,0,0,.68.4A.73.73,0,0,0,42,27a2.17,2.17,0,0,0,.23-1.1,2,2,0,0,0-.3-1.16.67.67,0,0,0-.57-.32.77.77,0,0,0-.68.42,1.85,1.85,0,0,0-.2.51A2.5,2.5,0,0,0,40.4,26Z" transform="translate(-3 -7)"/><line class="cls-1" x1="38.13" y1="24.5" x2="1.5" y2="24.5"/><line class="cls-1" x1="0.5" y1="0.5" x2="0.5" y2="24.5"/><line class="cls-1" x1="44.5" y1="0.5" x2="0.5" y2="0.5"/><line class="cls-1" x1="45.5" y1="24.5" x2="45.5" y2="0.5"/><line class="cls-1" x1="45.5" y1="24.5" x2="45.5" y2="24.5"/><line class="cls-1" x1="45.5" y1="24.5" x2="44.5" y2="24.5"/></svg>