<svg id="Layer_1" data-name="Layer 1" xmlns="http://www.w3.org/2000/svg" viewBox="0 0 246.81 52.44"><defs><style>.cls-1{fill:none;stroke:#000;stroke-linecap:round;stroke-linejoin:round;stroke-width:2px;}.cls-2{font-size:28px;}.cls-2,.cls-3{font-family:BaskOldFace, Baskerville Old Face;}.cls-3{font-size:23.2px;}</style></defs><title>logo-yolanda-truong-2</title><path d="M212.63,111.28a13.75,13.75,0,0,1-.18-2.7v-4.31a6.51,6.51,0,0,1,.16-1.72,7.47,7.47,0,0,1,.88-1.6l4-6.12a18.87,18.87,0,0,1,2.65-3.36,3.55,3.55,0,0,1,1-.66,5.53,5.53,0,0,1,1.41-.31v-.4h-8.09v.4a3,3,0,0,1,2,.62,2.16,2.16,0,0,1,.72,1.74,3.72,3.72,0,0,1-.65,2l-.46.72L212,102l-4.76-7.45a9.62,9.62,0,0,1-.71-1.28,2.35,2.35,0,0,1-.22-.91,1.53,1.53,0,0,1,1-1.53,7,7,0,0,1,1.86-.26v-.4H197.72v.4a6.87,6.87,0,0,1,1.23.14,3.13,3.13,0,0,1,.88.37,5.73,5.73,0,0,1,1.76,1.83l.81,1.23,4.55,6.84a11.33,11.33,0,0,1,1.37,2.6,5.21,5.21,0,0,1,.3,1.63l0,3.43a13.35,13.35,0,0,1-.19,2.67,2.91,2.91,0,0,1-1.86,2.16,5.8,5.8,0,0,1-1.63.28v.4h5l2.76-2.76Z" transform="translate(-193 -87)"/><path d="M224.08,111.2l-.79.79c.55-.07,1.15-.14,1.83-.17q1.27-.07,2.37-.07v17.93a12.78,12.78,0,0,1-.2,2.67,3,3,0,0,1-1.86,2.16,5.76,5.76,0,0,1-1.64.28v.4H235v-.4a5.7,5.7,0,0,1-1.63-.28,3,3,0,0,1-1.86-2.17,12.8,12.8,0,0,1-.2-2.66V111.75a22.34,22.34,0,0,1,5.54.47,5.59,5.59,0,0,1,2.94,1.8,8.47,8.47,0,0,1,1.49,3.7l.4,0-.32-6.49Z" transform="translate(-193 -87)"/><line class="cls-1" x1="47.16" y1="2.84" x2="2.84" y2="47.17"/><path d="M242.87,93.57A14,14,0,0,1,243,87a14.52,14.52,0,0,1-6.57.13l-.79.79a15.77,15.77,0,0,0,6.29.14,16,16,0,0,0,.13,6.31Z" transform="translate(-193 -87)"/><path d="M241,95.48a14,14,0,0,1,.13-6.57,14.52,14.52,0,0,1-6.57.13l-.79.79A15.78,15.78,0,0,0,240,90a16,16,0,0,0,.13,6.3Z" transform="translate(-193 -87)"/><path d="M199.57,136.87A14,14,0,0,0,193,137a14.52,14.52,0,0,0,.13-6.57l.79-.79a15.77,15.77,0,0,1,.14,6.29,16,16,0,0,1,6.31.13Z" transform="translate(-193 -87)"/><path d="M201.48,135a14,14,0,0,0-6.57.13,14.52,14.52,0,0,0,.13-6.57l.79-.79A15.78,15.78,0,0,1,196,134a16,16,0,0,1,6.3.13Z" transform="translate(-193 -87)"/><text class="cls-2" transform="translate(62.33 23.34)">Yolanda Truong</text><text class="cls-3" transform="translate(62.33 46.34)">Wimper Extensions</text></svg>