<svg id="Layer_1" data-name="Layer 1" xmlns="http://www.w3.org/2000/svg" viewBox="0 0 224.07 40.53"><defs><style>.cls-1{fill:none;stroke:#000;stroke-linecap:round;stroke-miterlimit:10;}</style></defs><title>logo-yopy-3</title><path d="M10.92,25.8v-.38a5.48,5.48,0,0,0,1.54-.27,2.75,2.75,0,0,0,1.76-2,12.61,12.61,0,0,0,.18-2.52l0-3.24a4.93,4.93,0,0,0-.28-1.54,10.73,10.73,0,0,0-1.29-2.46L8.55,6.89,7.78,5.72A5.42,5.42,0,0,0,6.12,4a3,3,0,0,0-.83-.35,6.52,6.52,0,0,0-1.16-.13V3.13H15v.38a6.64,6.64,0,0,0-1.76.25,1.44,1.44,0,0,0-.93,1.44,2.21,2.21,0,0,0,.21.86,9,9,0,0,0,.67,1.21l4.5,7,3.85-6,.43-.68a3.51,3.51,0,0,0,.61-1.89,2,2,0,0,0-.68-1.64A2.85,2.85,0,0,0,20,3.52V3.13h7.64v.38a5.23,5.23,0,0,0-1.33.29,3.35,3.35,0,0,0-.95.62A17.81,17.81,0,0,0,22.81,7.6L19,13.38a7.05,7.05,0,0,0-.83,1.51A6.15,6.15,0,0,0,18,16.52v4.07a13,13,0,0,0,.17,2.55,2.71,2.71,0,0,0,.71,1.32,3.42,3.42,0,0,0,2.61,1v.38Z" transform="translate(-4.13 -2.47)"/><path d="M28,18.79A6.8,6.8,0,0,1,30,14,7.82,7.82,0,0,1,41.6,14a6.84,6.84,0,0,1,.1,9.55,7.6,7.6,0,0,1-5.88,2.56,7.65,7.65,0,0,1-5.89-2.56,7.22,7.22,0,0,1-1.4-2.22A6.75,6.75,0,0,1,28,18.79Zm3-.19a8.83,8.83,0,0,0,1.29,4.89,4.22,4.22,0,0,0,3.57,2.24,3.4,3.4,0,0,0,1.74-.5,4.6,4.6,0,0,0,1.46-1.39,7.77,7.77,0,0,0,1-2.33,9.9,9.9,0,0,0,.4-2.71,9.35,9.35,0,0,0-.42-2.74A8.14,8.14,0,0,0,39,13.67a4,4,0,0,0-3.34-1.87,3.9,3.9,0,0,0-3.24,2A8.22,8.22,0,0,0,31.06,18.6Z" transform="translate(-4.13 -2.47)"/><path d="M45.25,3.07,50,2.47V21l0,1.26a7.34,7.34,0,0,0,.13,1.65,1.72,1.72,0,0,0,.51.87,3.42,3.42,0,0,0,1.71.68v.35H45.07v-.35a4.31,4.31,0,0,0,1.43-.37,1.71,1.71,0,0,0,.7-.82,3.61,3.61,0,0,0,.26-1.15q.07-.77.07-2.23v-13a23.29,23.29,0,0,0-.08-2.39,2.61,2.61,0,0,0-.37-1.13,1.7,1.7,0,0,0-.68-.66,3.11,3.11,0,0,0-1.15-.25Z" transform="translate(-4.13 -2.47)"/><path d="M67.51,24.19l.28.17a2.57,2.57,0,0,1-2.74,1.74,3.2,3.2,0,0,1-2-.58A4.38,4.38,0,0,1,62,24.19a11,11,0,0,1-1.68,1.31,5.11,5.11,0,0,1-2.51.6,4.44,4.44,0,0,1-2.9-.88,2.91,2.91,0,0,1-1.07-2.37,3.23,3.23,0,0,1,.88-2.31,3.93,3.93,0,0,1,1.15-.82,11,11,0,0,1,1.88-.62q1.44-.36,2.13-.61a4.42,4.42,0,0,0,1.15-.6,2,2,0,0,0,.73-.9,4.08,4.08,0,0,0,.2-1.43,4.48,4.48,0,0,0-.73-2.84A2.4,2.4,0,0,0,60.4,12a2.5,2.5,0,0,0-1.09-.25,2.16,2.16,0,0,0-1.21.35,2.13,2.13,0,0,0-.8,1l-.42,1a1.2,1.2,0,0,1-1.2.78,1.3,1.3,0,0,1-.95-.37,1.26,1.26,0,0,1-.38-.94q0-.85,1.2-1.43a7.28,7.28,0,0,1,1.6-.49A9.56,9.56,0,0,1,59,11.44a9.27,9.27,0,0,1,2.15.27,7.41,7.41,0,0,1,1.86.68A2.64,2.64,0,0,1,64.39,14a7.3,7.3,0,0,1,.13,1.68v6.14a11,11,0,0,0,.13,2.13A1.32,1.32,0,0,0,66,25.1a1.51,1.51,0,0,0,.81-.18A2.87,2.87,0,0,0,67.51,24.19ZM62,17.64A11.09,11.09,0,0,1,60,19a17.26,17.26,0,0,0-1.67,1,4.44,4.44,0,0,0-.84.8A3.46,3.46,0,0,0,56.76,23a2.7,2.7,0,0,0,.6,1.81,1.92,1.92,0,0,0,1.53.71A2.61,2.61,0,0,0,60.42,25a3.12,3.12,0,0,0,1.08-1.35A8,8,0,0,0,62,20.42Z" transform="translate(-4.13 -2.47)"/><path d="M72.54,11.44a7.72,7.72,0,0,1,.23,1.8v.27a6.67,6.67,0,0,1,4.9-2.07,5.47,5.47,0,0,1,3.42,1,3.3,3.3,0,0,1,1.28,2.79v7a7.33,7.33,0,0,0,.13,1.65,1.72,1.72,0,0,0,.51.87,3.42,3.42,0,0,0,1.71.68v.35H77.39v-.35a4.31,4.31,0,0,0,1.43-.37,1.71,1.71,0,0,0,.7-.82,3.61,3.61,0,0,0,.26-1.15q.07-.77.07-2.21V17.37a20.26,20.26,0,0,0-.12-2.65,3.26,3.26,0,0,0-.47-1.36,2.51,2.51,0,0,0-1.09-.9,3.76,3.76,0,0,0-1.57-.32,4.14,4.14,0,0,0-1.73.36,3.15,3.15,0,0,0-1.27,1,3.56,3.56,0,0,0-.65,1.5,17,17,0,0,0-.16,2.78V21l0,1.23a7.33,7.33,0,0,0,.13,1.65,1.72,1.72,0,0,0,.51.87,3.42,3.42,0,0,0,1.71.68v.35H67.81v-.35a4.32,4.32,0,0,0,1.43-.37,1.7,1.7,0,0,0,.7-.82,3.58,3.58,0,0,0,.26-1.15q.07-.77.07-2.22V16.81a23.09,23.09,0,0,0-.08-2.39,2.59,2.59,0,0,0-.37-1.12,1.76,1.76,0,0,0-.68-.67A3,3,0,0,0,68,12.38V12Z" transform="translate(-4.13 -2.47)"/><path d="M97.56,26.36a8.94,8.94,0,0,1-.17-1.76,9.83,9.83,0,0,1-2.31,1.15,7.58,7.58,0,0,1-2.33.35,6.46,6.46,0,0,1-4.31-1.51,6.3,6.3,0,0,1-1.76-2.42A8.09,8.09,0,0,1,86.07,19a8.51,8.51,0,0,1,.66-3.38A7,7,0,0,1,88.59,13a6.74,6.74,0,0,1,4.49-1.59,5.71,5.71,0,0,1,2.15.37,8.85,8.85,0,0,1,2.09,1.33V7a4.36,4.36,0,0,0-.6-2.6,2.34,2.34,0,0,0-2-.79V3.2l5.1-.65V21.77a4.55,4.55,0,0,0,.6,2.67,2.31,2.31,0,0,0,2,.8v.42Zm-.23-7.74a22.18,22.18,0,0,0-.2-3.46,4.61,4.61,0,0,0-.71-1.88,3.23,3.23,0,0,0-1.2-1,3.38,3.38,0,0,0-1.55-.38,3.79,3.79,0,0,0-3.06,1.66,7.52,7.52,0,0,0-1.22,2.37A9.32,9.32,0,0,0,89,18.76a9.63,9.63,0,0,0,.41,2.8A7.79,7.79,0,0,0,90.5,23.9a3.67,3.67,0,0,0,3,1.69,3.32,3.32,0,0,0,1.64-.43A3.43,3.43,0,0,0,96.44,24a5.41,5.41,0,0,0,.69-2A21.64,21.64,0,0,0,97.33,18.62Z" transform="translate(-4.13 -2.47)"/><path d="M117.53,24.19l.28.17a2.57,2.57,0,0,1-2.74,1.74,3.2,3.2,0,0,1-2-.58,4.38,4.38,0,0,1-1.06-1.33,11,11,0,0,1-1.68,1.31,5.11,5.11,0,0,1-2.51.6,4.44,4.44,0,0,1-2.9-.88,2.91,2.91,0,0,1-1.07-2.37,3.23,3.23,0,0,1,.88-2.31,3.93,3.93,0,0,1,1.15-.82,11,11,0,0,1,1.88-.62q1.44-.36,2.13-.61a4.42,4.42,0,0,0,1.15-.6,2,2,0,0,0,.73-.9,4.08,4.08,0,0,0,.2-1.43,4.48,4.48,0,0,0-.73-2.84,2.4,2.4,0,0,0-.85-.66,2.5,2.5,0,0,0-1.09-.25,2.16,2.16,0,0,0-1.21.35,2.13,2.13,0,0,0-.8,1l-.42,1a1.2,1.2,0,0,1-1.2.78,1.3,1.3,0,0,1-.95-.37,1.26,1.26,0,0,1-.38-.94q0-.85,1.2-1.43a7.28,7.28,0,0,1,1.6-.49,9.56,9.56,0,0,1,1.87-.19,9.27,9.27,0,0,1,2.15.27,7.41,7.41,0,0,1,1.86.68A2.64,2.64,0,0,1,114.41,14a7.3,7.3,0,0,1,.13,1.68v6.14a11,11,0,0,0,.13,2.13A1.32,1.32,0,0,0,116,25.1a1.51,1.51,0,0,0,.81-.18A2.87,2.87,0,0,0,117.53,24.19ZM112,17.64a11.09,11.09,0,0,1-2,1.31,17.26,17.26,0,0,0-1.67,1,4.44,4.44,0,0,0-.84.8,3.46,3.46,0,0,0-.78,2.24,2.7,2.7,0,0,0,.6,1.81,1.92,1.92,0,0,0,1.53.71,2.61,2.61,0,0,0,1.53-.51,3.12,3.12,0,0,0,1.08-1.35,8,8,0,0,0,.51-3.22Z" transform="translate(-4.13 -2.47)"/><path d="M135.66,3.65q-1,0-2.24.07a12.34,12.34,0,0,0-3.81.65,4.46,4.46,0,0,0-2.07,1.78,9.21,9.21,0,0,0-1.15,3.15l-.38,0,.3-6.13h22.46l.3,6.13-.38,0a8,8,0,0,0-1.4-3.49,5.28,5.28,0,0,0-2.78-1.7,21.09,21.09,0,0,0-5.23-.45V20.58a12.08,12.08,0,0,0,.19,2.52,2.81,2.81,0,0,0,.71,1.35,2.78,2.78,0,0,0,1.05.7,5.37,5.37,0,0,0,1.54.27v.38H132.16v-.38a5.43,5.43,0,0,0,1.55-.27,2.78,2.78,0,0,0,1.05-.7,2.81,2.81,0,0,0,.71-1.34,12.09,12.09,0,0,0,.19-2.52Z" transform="translate(-4.13 -2.47)"/><path d="M154.42,14a4.83,4.83,0,0,1,1.34-1.58,5.28,5.28,0,0,1,3.14-1,2.47,2.47,0,0,1,1.64.48,1.34,1.34,0,0,1,.51,1.06,1,1,0,0,1-.31.76,1.08,1.08,0,0,1-.79.3,1.27,1.27,0,0,1-1-.46l-.51-.56a1.93,1.93,0,0,0-1.44-.65q-1.13,0-1.76,1.46a10.51,10.51,0,0,0-.63,4.06V21l0,1.26a7.33,7.33,0,0,0,.13,1.65,1.72,1.72,0,0,0,.51.87,3.42,3.42,0,0,0,1.71.68v.35h-7.34v-.35a4.32,4.32,0,0,0,1.43-.37,1.7,1.7,0,0,0,.7-.82,3.58,3.58,0,0,0,.26-1.15q.07-.77.07-2.22V16.81a23.09,23.09,0,0,0-.08-2.39,2.59,2.59,0,0,0-.37-1.12,1.76,1.76,0,0,0-.68-.67,3,3,0,0,0-1.15-.26V12l4.28-.6A13.89,13.89,0,0,1,154.42,14Z" transform="translate(-4.13 -2.47)"/><path d="M173.45,26.09a9.89,9.89,0,0,1-.22-2.07,6.72,6.72,0,0,1-4.91,2.07,5.18,5.18,0,0,1-3.34-1,3.42,3.42,0,0,1-1.23-2.82V16.49l0-1.26a7.25,7.25,0,0,0-.13-1.64,1.89,1.89,0,0,0-.5-.88,3.45,3.45,0,0,0-1.73-.66v-.37h4.88V20.1a20.08,20.08,0,0,0,.12,2.63,3.75,3.75,0,0,0,.46,1.4,2.47,2.47,0,0,0,1,.89,3.5,3.5,0,0,0,1.52.32,4.19,4.19,0,0,0,1.74-.36,3.14,3.14,0,0,0,1.28-1,3.56,3.56,0,0,0,.64-1.49,17.19,17.19,0,0,0,.16-2.79V16.46l0-1.23a7.7,7.7,0,0,0-.12-1.64,1.77,1.77,0,0,0-.51-.88,3.36,3.36,0,0,0-1.73-.66v-.37h4.88v9a21.08,21.08,0,0,0,.09,2.4,2.83,2.83,0,0,0,.36,1.12,1.87,1.87,0,0,0,.7.67,3,3,0,0,0,1.15.26v.35Z" transform="translate(-4.13 -2.47)"/><path d="M179.46,18.79a6.8,6.8,0,0,1,2-4.8A7.82,7.82,0,0,1,193,14a6.84,6.84,0,0,1,.1,9.55,8.05,8.05,0,0,1-11.77,0,7.25,7.25,0,0,1-1.4-2.22A6.76,6.76,0,0,1,179.46,18.79Zm3-.19a8.83,8.83,0,0,0,1.29,4.89,4.22,4.22,0,0,0,3.57,2.24,3.4,3.4,0,0,0,1.74-.5,4.6,4.6,0,0,0,1.46-1.39,7.77,7.77,0,0,0,1-2.33,9.9,9.9,0,0,0,.4-2.71,9.32,9.32,0,0,0-.42-2.74,8.09,8.09,0,0,0-1.14-2.38,4,4,0,0,0-3.34-1.87,3.91,3.91,0,0,0-3.24,2A8.22,8.22,0,0,0,182.48,18.6Z" transform="translate(-4.13 -2.47)"/><path d="M201.22,11.44a7.69,7.69,0,0,1,.23,1.8v.27a6.67,6.67,0,0,1,4.9-2.07,5.46,5.46,0,0,1,3.42,1,3.3,3.3,0,0,1,1.28,2.79v7a7.33,7.33,0,0,0,.13,1.65,1.73,1.73,0,0,0,.51.87,3.42,3.42,0,0,0,1.71.68v.35h-7.34v-.35a4.31,4.31,0,0,0,1.43-.37,1.7,1.7,0,0,0,.7-.82,3.62,3.62,0,0,0,.26-1.15q.07-.77.07-2.21V17.37a20.18,20.18,0,0,0-.12-2.65,3.25,3.25,0,0,0-.47-1.36,2.51,2.51,0,0,0-1.09-.9,3.76,3.76,0,0,0-1.57-.32,4.14,4.14,0,0,0-1.73.36,3.16,3.16,0,0,0-1.27,1,3.56,3.56,0,0,0-.65,1.5,17,17,0,0,0-.16,2.78V21l0,1.23a7.33,7.33,0,0,0,.13,1.65,1.73,1.73,0,0,0,.51.87,3.42,3.42,0,0,0,1.71.68v.35h-7.34v-.35a4.32,4.32,0,0,0,1.43-.37,1.7,1.7,0,0,0,.7-.82,3.54,3.54,0,0,0,.26-1.15q.08-.77.08-2.22V16.81a23,23,0,0,0-.08-2.39,2.58,2.58,0,0,0-.37-1.12,1.76,1.76,0,0,0-.68-.67,3,3,0,0,0-1.15-.26V12Z" transform="translate(-4.13 -2.47)"/><path d="M220.09,30.5c1.48,0,3.17,0,3.87-.53a2,2,0,0,0,1-2.08,2,2,0,0,0-.92-1.77,4.43,4.43,0,0,0-2.61-.66h-2.64a4.19,4.19,0,0,1-2.62-.77,2.36,2.36,0,0,1-1-1.92,2.1,2.1,0,0,1,1.1-1.86,8.83,8.83,0,0,1,2.06-.72A5.6,5.6,0,0,1,216,18.45a4,4,0,0,1-.8-2.39,4.21,4.21,0,0,1,1.25-3,5.24,5.24,0,0,1,3.77-1.64,5.79,5.79,0,0,1,3.26,1.13,6.21,6.21,0,0,1,1.41-.87,3.53,3.53,0,0,1,1.36-.26,2.25,2.25,0,0,1,1.31.35,1.28,1.28,0,0,1,.6,1.06.91.91,0,0,1-.23.64.76.76,0,0,1-.59.26,1.23,1.23,0,0,1-1-.56l-.38-.5a1.07,1.07,0,0,0-.89-.4,2,2,0,0,0-1.29.61,5.28,5.28,0,0,1,1.35,3.39,3.91,3.91,0,0,1-1.93,3.44,5.78,5.78,0,0,1-2.08.85q-.33,0-2.11.17-2.44.15-2.44,1.36t2.08,1.06h2.74a10,10,0,0,1,2.44.26,5.07,5.07,0,0,1,1.75.81,3.36,3.36,0,0,1,1.47,2.92,4,4,0,0,1-1.68,3.37c-1.28,1-2.17,1-5.16,1m-2.65-15.32a5.15,5.15,0,0,0,.75,2.92,2.25,2.25,0,0,0,1.93,1.13,2.06,2.06,0,0,0,1.85-1.12,6.12,6.12,0,0,0,.66-3.11,5.61,5.61,0,0,0-.86-3.28,1.9,1.9,0,0,0-1.62-.91A2.18,2.18,0,0,0,218.42,13a5.24,5.24,0,0,0-.58,1.46A7.09,7.09,0,0,0,217.63,16.17Z" transform="translate(-4.13 -2.47)"/><path class="cls-1" d="M220.5,31C73,31,21,27.5,9,39.5" transform="translate(-4.13 -2.47)"/><path class="cls-1" d="M220.5,31C83,31,29,29.5,17,41.5" transform="translate(-4.13 -2.47)"/><path class="cls-1" d="M220.5,31C100,31,38,30.5,26,42.5" transform="translate(-4.13 -2.47)"/></svg>