<svg id="Layer_1" data-name="Layer 1" xmlns="http://www.w3.org/2000/svg" viewBox="0 0 75 39"><defs><style>.cls-1,.cls-2{fill:#fff;}.cls-2{stroke:#fcfcfc;stroke-linecap:square;stroke-miterlimit:10;}</style></defs><title>logo-v4-white</title><path class="cls-1" d="M7.77,17.3v-.22a3.23,3.23,0,0,0,.91-.16,1.62,1.62,0,0,0,1-1.2,7.4,7.4,0,0,0,.11-1.48v-1.9a2.89,2.89,0,0,0-.17-.91A6.28,6.28,0,0,0,8.9,10L6.37,6.18,5.92,5.5a3.19,3.19,0,0,0-1-1,1.74,1.74,0,0,0-.49-.21,3.83,3.83,0,0,0-.68-.08V4h6.37V4.2a3.91,3.91,0,0,0-1,.15.85.85,0,0,0-.55.85,1.3,1.3,0,0,0,.12.51,5.38,5.38,0,0,0,.4.71l2.65,4.14L14,7l.25-.4a2.07,2.07,0,0,0,.36-1.11,1.2,1.2,0,0,0-.4-1,1.68,1.68,0,0,0-1.12-.34V4h4.49V4.2a3.08,3.08,0,0,0-.78.17,2,2,0,0,0-.56.37A10.48,10.48,0,0,0,14.76,6.6L12.53,10a4.14,4.14,0,0,0-.49.89,3.62,3.62,0,0,0-.09,1v2.39a7.64,7.64,0,0,0,.1,1.5,1.6,1.6,0,0,0,.42.78,2,2,0,0,0,1.53.57v.22Z"/><path class="cls-1" d="M17.84,13.18A4,4,0,0,1,19,10.36a4.6,4.6,0,0,1,6.81,0A4,4,0,0,1,25.87,16a4.74,4.74,0,0,1-6.92,0,4.25,4.25,0,0,1-.83-1.31A4,4,0,0,1,17.84,13.18Zm1.78-.11a5.19,5.19,0,0,0,.76,2.88,2.48,2.48,0,0,0,2.1,1.32,2,2,0,0,0,1-.29,2.7,2.7,0,0,0,.86-.82A4.57,4.57,0,0,0,25,14.78a5.82,5.82,0,0,0,.23-1.59A5.5,5.5,0,0,0,25,11.57a4.79,4.79,0,0,0-.67-1.4,2.36,2.36,0,0,0-2-1.1,2.3,2.3,0,0,0-1.9,1.16A4.83,4.83,0,0,0,19.61,13.07Z"/><path class="cls-1" d="M28,3.94l2.81-.35V15.22a4.32,4.32,0,0,0,.08,1,1,1,0,0,0,.3.51,2,2,0,0,0,1,.4v.21H27.86V17.1a2.53,2.53,0,0,0,.84-.22,1,1,0,0,0,.41-.48,2.12,2.12,0,0,0,.15-.68q0-.45,0-1.31V6.75a13.63,13.63,0,0,0,0-1.4A1.53,1.53,0,0,0,29,4.69a1,1,0,0,0-.4-.39A1.82,1.82,0,0,0,28,4.15Z"/><path class="cls-1" d="M41.06,16.36l.17.1a1.51,1.51,0,0,1-1.61,1,1.88,1.88,0,0,1-1.15-.34,2.57,2.57,0,0,1-.63-.78,6.49,6.49,0,0,1-1,.77,3,3,0,0,1-1.48.35A2.61,2.61,0,0,1,33.66,17a1.71,1.71,0,0,1-.63-1.4,1.9,1.9,0,0,1,.52-1.36,2.31,2.31,0,0,1,.67-.48,6.41,6.41,0,0,1,1.1-.37q.85-.21,1.25-.36a2.6,2.6,0,0,0,.68-.35,1.18,1.18,0,0,0,.43-.53,2.4,2.4,0,0,0,.12-.84,2.63,2.63,0,0,0-.43-1.67,1.41,1.41,0,0,0-.5-.39,1.47,1.47,0,0,0-.64-.15,1.27,1.27,0,0,0-.71.21,1.25,1.25,0,0,0-.47.57l-.24.57a.7.7,0,0,1-.7.46.77.77,0,0,1-.56-.22.74.74,0,0,1-.22-.55q0-.5.7-.84A4.27,4.27,0,0,1,35,9a5.62,5.62,0,0,1,1.1-.11A5.45,5.45,0,0,1,37.33,9a4.35,4.35,0,0,1,1.1.4,1.55,1.55,0,0,1,.79.94,4.3,4.3,0,0,1,.08,1V15a6.48,6.48,0,0,0,.08,1.25.78.78,0,0,0,.8.69.89.89,0,0,0,.47-.11A1.69,1.69,0,0,0,41.06,16.36Zm-3.23-3.85a6.54,6.54,0,0,1-1.16.77,10.05,10.05,0,0,0-1,.58,2.61,2.61,0,0,0-.5.47,2,2,0,0,0-.46,1.32,1.59,1.59,0,0,0,.36,1.06,1.13,1.13,0,0,0,.9.42,1.54,1.54,0,0,0,.9-.3,1.84,1.84,0,0,0,.64-.8,4.68,4.68,0,0,0,.3-1.89Z"/><path class="cls-1" d="M44,8.86a4.53,4.53,0,0,1,.14,1.06v.16A3.92,3.92,0,0,1,47,8.86a3.22,3.22,0,0,1,2,.58,1.94,1.94,0,0,1,.75,1.64v4.14a4.34,4.34,0,0,0,.08,1,1,1,0,0,0,.3.51,2,2,0,0,0,1,.4v.21H46.87V17.1a2.53,2.53,0,0,0,.84-.22,1,1,0,0,0,.41-.48,2.13,2.13,0,0,0,.15-.68q0-.45,0-1.3V12.35a11.86,11.86,0,0,0-.07-1.56A1.93,1.93,0,0,0,48,10a1.47,1.47,0,0,0-.64-.53,2.21,2.21,0,0,0-.92-.19,2.44,2.44,0,0,0-1,.21,1.86,1.86,0,0,0-.75.59,2.1,2.1,0,0,0-.39.88,10,10,0,0,0-.09,1.63v2.63a4.31,4.31,0,0,0,.08,1,1,1,0,0,0,.3.51,2,2,0,0,0,1,.4v.21H41.23V17.1a2.53,2.53,0,0,0,.84-.22,1,1,0,0,0,.41-.48,2.1,2.1,0,0,0,.15-.68q0-.45,0-1.31V12a13.5,13.5,0,0,0,0-1.4,1.52,1.52,0,0,0-.21-.66,1,1,0,0,0-.4-.39,1.77,1.77,0,0,0-.67-.15V9.21Z"/><path class="cls-1" d="M58.73,17.64a5.31,5.31,0,0,1-.1-1,5.77,5.77,0,0,1-1.36.67,4.45,4.45,0,0,1-1.37.21,3.8,3.8,0,0,1-2.54-.89,3.72,3.72,0,0,1-1-1.42A4.76,4.76,0,0,1,52,13.3a5,5,0,0,1,.39-2,4.1,4.1,0,0,1,1.09-1.52,4,4,0,0,1,2.64-.94,3.36,3.36,0,0,1,1.27.21,5.19,5.19,0,0,1,1.23.78V6.24a2.57,2.57,0,0,0-.35-1.53,1.38,1.38,0,0,0-1.17-.47V4l3-.38v11.3a2.68,2.68,0,0,0,.35,1.57,1.36,1.36,0,0,0,1.16.47v.24Zm-.14-4.55a13,13,0,0,0-.12-2,2.7,2.7,0,0,0-.42-1.11,1.89,1.89,0,0,0-.71-.6,2,2,0,0,0-.91-.22,2.23,2.23,0,0,0-1.8,1,4.43,4.43,0,0,0-.71,1.4,5.48,5.48,0,0,0-.26,1.67,5.66,5.66,0,0,0,.24,1.65,4.6,4.6,0,0,0,.66,1.38,2.16,2.16,0,0,0,1.79,1,2,2,0,0,0,1-.25,2,2,0,0,0,.74-.7,3.17,3.17,0,0,0,.41-1.16A12.68,12.68,0,0,0,58.6,13.09Z"/><path class="cls-1" d="M70.48,16.36l.17.1a1.51,1.51,0,0,1-1.61,1,1.88,1.88,0,0,1-1.15-.34,2.59,2.59,0,0,1-.63-.78,6.44,6.44,0,0,1-1,.77,3,3,0,0,1-1.48.35A2.61,2.61,0,0,1,63.09,17a1.71,1.71,0,0,1-.63-1.4A1.9,1.9,0,0,1,63,14.21a2.31,2.31,0,0,1,.67-.48,6.43,6.43,0,0,1,1.1-.37Q65.6,13.14,66,13a2.6,2.6,0,0,0,.68-.35,1.18,1.18,0,0,0,.43-.53,2.4,2.4,0,0,0,.12-.84,2.63,2.63,0,0,0-.43-1.67,1.41,1.41,0,0,0-.5-.39,1.47,1.47,0,0,0-.64-.15,1.25,1.25,0,0,0-1.18.77l-.24.57a.7.7,0,0,1-.7.46.76.76,0,0,1-.56-.22.74.74,0,0,1-.22-.55q0-.5.7-.84A4.28,4.28,0,0,1,64.4,9a5.62,5.62,0,0,1,1.1-.11A5.45,5.45,0,0,1,66.76,9a4.36,4.36,0,0,1,1.1.4,1.55,1.55,0,0,1,.79.94,4.33,4.33,0,0,1,.08,1V15a6.52,6.52,0,0,0,.08,1.25.78.78,0,0,0,.8.69.89.89,0,0,0,.47-.11A1.68,1.68,0,0,0,70.48,16.36Zm-3.23-3.85a6.52,6.52,0,0,1-1.16.77,10.11,10.11,0,0,0-1,.58,2.58,2.58,0,0,0-.5.47,2,2,0,0,0-.46,1.32,1.59,1.59,0,0,0,.36,1.06,1.13,1.13,0,0,0,.9.42,1.54,1.54,0,0,0,.9-.3,1.84,1.84,0,0,0,.64-.8,4.68,4.68,0,0,0,.3-1.89Z"/><path class="cls-1" d="M13,21.93q-.62,0-1.32,0a7.26,7.26,0,0,0-2.24.38,2.62,2.62,0,0,0-1.22,1,5.41,5.41,0,0,0-.67,1.86l-.22,0,.18-3.6H20.76l.18,3.6-.22,0a4.71,4.71,0,0,0-.83-2.06,3.1,3.1,0,0,0-1.64-1,12.41,12.41,0,0,0-3.08-.26v10a7.12,7.12,0,0,0,.11,1.48,1.64,1.64,0,0,0,1,1.21,3.15,3.15,0,0,0,.9.16V35H11v-.22a3.19,3.19,0,0,0,.91-.16,1.64,1.64,0,0,0,1-1.2A7.11,7.11,0,0,0,13,31.89Z"/><path class="cls-1" d="M24.08,28a2.83,2.83,0,0,1,.79-.93,3.11,3.11,0,0,1,1.85-.58,1.45,1.45,0,0,1,1,.28.78.78,0,0,1,.3.62.6.6,0,0,1-.18.45.64.64,0,0,1-.46.18.75.75,0,0,1-.58-.27l-.3-.33a1.13,1.13,0,0,0-.85-.38q-.66,0-1,.86a6.18,6.18,0,0,0-.37,2.39v2.56a4.31,4.31,0,0,0,.08,1,1,1,0,0,0,.3.51,2,2,0,0,0,1,.4V35H21.29v-.21a2.54,2.54,0,0,0,.84-.22,1,1,0,0,0,.41-.48,2.1,2.1,0,0,0,.15-.68q0-.45,0-1.31v-2.4a13.49,13.49,0,0,0,0-1.4,1.52,1.52,0,0,0-.21-.66,1,1,0,0,0-.4-.39,1.76,1.76,0,0,0-.67-.15v-.21l2.52-.35A8.18,8.18,0,0,1,24.08,28Z"/><path class="cls-1" d="M35.27,35.13a5.83,5.83,0,0,1-.13-1.22,4,4,0,0,1-2.89,1.22,3,3,0,0,1-2-.59,2,2,0,0,1-.72-1.66V28.74a4.24,4.24,0,0,0-.08-1,1.1,1.1,0,0,0-.29-.52,2,2,0,0,0-1-.39v-.21H31v5a11.8,11.8,0,0,0,.07,1.55,2.2,2.2,0,0,0,.27.83,1.45,1.45,0,0,0,.61.52,2.06,2.06,0,0,0,.9.19,2.46,2.46,0,0,0,1-.21,1.84,1.84,0,0,0,.75-.58A2.09,2.09,0,0,0,35,33a10,10,0,0,0,.09-1.64V28.74a4.53,4.53,0,0,0-.07-1,1,1,0,0,0-.3-.52,2,2,0,0,0-1-.39v-.21h2.87V32a12.49,12.49,0,0,0,.05,1.41,1.67,1.67,0,0,0,.21.66,1.1,1.1,0,0,0,.41.39,1.75,1.75,0,0,0,.67.15v.21Z"/><path class="cls-1" d="M38.81,30.83A4,4,0,0,1,40,28a4.6,4.6,0,0,1,6.81,0,4,4,0,0,1,.06,5.62,4.74,4.74,0,0,1-6.92,0,4.26,4.26,0,0,1-.83-1.31A4,4,0,0,1,38.81,30.83Zm1.78-.11a5.2,5.2,0,0,0,.76,2.88,2.48,2.48,0,0,0,2.1,1.32,2,2,0,0,0,1-.29,2.69,2.69,0,0,0,.86-.82,4.56,4.56,0,0,0,.62-1.37,5.82,5.82,0,0,0,.23-1.59,5.5,5.5,0,0,0-.25-1.61,4.76,4.76,0,0,0-.67-1.4,2.36,2.36,0,0,0-2-1.1,2.3,2.3,0,0,0-1.9,1.16A4.83,4.83,0,0,0,40.58,30.72Z"/><path class="cls-1" d="M51.61,26.51a4.53,4.53,0,0,1,.14,1.06v.16a3.93,3.93,0,0,1,2.88-1.22,3.22,3.22,0,0,1,2,.58,1.94,1.94,0,0,1,.75,1.64v4.14a4.35,4.35,0,0,0,.08,1,1,1,0,0,0,.3.51,2,2,0,0,0,1,.4V35H54.46v-.21a2.51,2.51,0,0,0,.84-.22,1,1,0,0,0,.41-.48,2.13,2.13,0,0,0,.15-.68q0-.45,0-1.3V30a11.86,11.86,0,0,0-.07-1.56,1.93,1.93,0,0,0-.28-.8,1.48,1.48,0,0,0-.64-.53,2.21,2.21,0,0,0-.92-.19,2.43,2.43,0,0,0-1,.21,1.84,1.84,0,0,0-.75.58,2.09,2.09,0,0,0-.38.88,10,10,0,0,0-.09,1.63v2.63a4.34,4.34,0,0,0,.08,1,1,1,0,0,0,.3.51,2,2,0,0,0,1,.4V35H48.83v-.21a2.54,2.54,0,0,0,.84-.22,1,1,0,0,0,.41-.48,2.12,2.12,0,0,0,.15-.68q0-.45,0-1.31v-2.4a13.64,13.64,0,0,0,0-1.4,1.52,1.52,0,0,0-.21-.66,1,1,0,0,0-.4-.39,1.76,1.76,0,0,0-.67-.15v-.21Z"/><path class="cls-1" d="M60,38h2.63a4.4,4.4,0,0,0,2.13-.29,1.76,1.76,0,0,0,.81-1.46A1.28,1.28,0,0,0,65,35.15a2.6,2.6,0,0,0-1.53-.39H61.94a2.47,2.47,0,0,1-1.54-.45,1.39,1.39,0,0,1-.61-1.13,1.24,1.24,0,0,1,.64-1.1,5.26,5.26,0,0,1,1.21-.42,3.29,3.29,0,0,1-1.32-1,2.33,2.33,0,0,1-.47-1.41,2.48,2.48,0,0,1,.73-1.75,3.09,3.09,0,0,1,2.22-1,3.41,3.41,0,0,1,1.92.66,3.63,3.63,0,0,1,.83-.51,2.08,2.08,0,0,1,.8-.15,1.32,1.32,0,0,1,.77.21.75.75,0,0,1,.35.63.54.54,0,0,1-.14.38.45.45,0,0,1-.35.15.72.72,0,0,1-.57-.33l-.22-.29a.63.63,0,0,0-.53-.23,1.17,1.17,0,0,0-.76.36,3.11,3.11,0,0,1,.8,2,2.3,2.3,0,0,1-1.14,2,3.41,3.41,0,0,1-1.22.5l-1.24.1q-1.44.09-1.44.8t1.22.63h1.61a5.87,5.87,0,0,1,1.44.15A3,3,0,0,1,66,34a2.52,2.52,0,0,1,.9,2.22,2.33,2.33,0,0,1-1,2,4.29,4.29,0,0,1-3,.75H60m1.26-9.7A3,3,0,0,0,61.7,31a1.32,1.32,0,0,0,1.13.66A1.21,1.21,0,0,0,63.93,31a3.6,3.6,0,0,0,.39-1.83,3.3,3.3,0,0,0-.51-1.93,1.12,1.12,0,0,0-1-.54,1.29,1.29,0,0,0-1.13.7,3.06,3.06,0,0,0-.34.86A4.14,4.14,0,0,0,61.26,29.3Z"/><line class="cls-2" x1="0.5" y1="38.5" x2="60" y2="38.5"/><line class="cls-2" x1="0.5" y1="38.5" x2="0.5" y2="0.5"/><line class="cls-2" x1="0.5" y1="0.5" x2="74.5" y2="0.5"/><line class="cls-2" x1="74.5" y1="38.5" x2="74.5" y2="0.5"/><line class="cls-2" x1="70.5" y1="38.5" x2="74.5" y2="38.5"/></svg>