<svg id="Layer_1" data-name="Layer 1" xmlns="http://www.w3.org/2000/svg" viewBox="0 0 224.06 46.54"><defs><style>.cls-1{font-size:34px;font-family:BaskOldFace, Baskerville Old Face;}.cls-2{fill:none;stroke:#000;stroke-linecap:round;stroke-miterlimit:10;}</style></defs><title>logo-yopy</title><text class="cls-1" transform="translate(0.57 28.34)">Yolanda Truong</text><path class="cls-2" d="M12,30c147.5,0,199.5-3.5,211.5,8.5" transform="translate(-4.13 2.54)"/><path class="cls-2" d="M12,30c155.5,0,194.5-1.5,206.5,10.5" transform="translate(-4.13 2.54)"/><path class="cls-2" d="M12,30c137.5,0,188.5-.5,200.5,11.5" transform="translate(-4.13 2.54)"/><path class="cls-2" d="M12,30c128.5,0,182.5.5,194.5,12.5" transform="translate(-4.13 2.54)"/><path class="cls-2" d="M12,30c68.5,0,162,2,173.5,13.5" transform="translate(-4.13 2.54)"/><path class="cls-2" d="M12,30c120.5,0,176.5,1.5,188.5,13.5" transform="translate(-4.13 2.54)"/><path class="cls-2" d="M12,30c90.5,0,169.5,1.5,181.5,13.5" transform="translate(-4.13 2.54)"/></svg>