<?xml version="1.0" encoding="utf-8"?>
<!-- Generator: Adobe Illustrator 21.1.0, SVG Export Plug-In . SVG Version: 6.00 Build 0)  -->
<svg version="1.1" id="Layer_1" xmlns="http://www.w3.org/2000/svg" xmlns:xlink="http://www.w3.org/1999/xlink" x="0px" y="0px"
	 viewBox="0 0 75 39" style="enable-background:new 0 0 75 39;" xml:space="preserve">
<style type="text/css">
	.st0{fill:none;stroke:#000000;stroke-linecap:square;stroke-miterlimit:10;}
</style>
<path d="M7.8,17.3v-0.2c0.4,0,0.7-0.1,0.9-0.2s0.4-0.2,0.6-0.4c0.2-0.2,0.3-0.5,0.4-0.8s0.1-0.8,0.1-1.5l0-1.9
	c0-0.3-0.1-0.6-0.2-0.9C9.5,11,9.3,10.6,8.9,10L6.4,6.2L5.9,5.5c-0.3-0.5-0.7-0.8-1-1C4.8,4.4,4.6,4.3,4.5,4.3S4.1,4.2,3.8,4.2V4
	h6.4v0.2c-0.5,0-0.9,0.1-1,0.1C8.7,4.5,8.6,4.8,8.6,5.2c0,0.1,0,0.3,0.1,0.5s0.2,0.4,0.4,0.7l2.6,4.1L14,7l0.3-0.4
	c0.2-0.4,0.4-0.7,0.4-1.1c0-0.4-0.1-0.7-0.4-1s-0.6-0.3-1.1-0.3V4h4.5v0.2c-0.3,0-0.6,0.1-0.8,0.2s-0.4,0.2-0.6,0.4
	c-0.4,0.4-0.9,1-1.5,1.9L12.5,10c-0.3,0.4-0.4,0.7-0.5,0.9s-0.1,0.5-0.1,1v2.4c0,0.7,0,1.2,0.1,1.5s0.2,0.6,0.4,0.8
	c0.4,0.4,0.9,0.6,1.5,0.6v0.2H7.8z"/>
<path d="M17.8,13.2c0-1.1,0.4-2,1.2-2.8c1-1,2.1-1.5,3.4-1.5s2.5,0.5,3.4,1.5c0.8,0.8,1.2,1.8,1.2,2.8c0,1-0.4,2-1.1,2.8
	c-0.9,1-2.1,1.5-3.5,1.5S19.9,17,18.9,16c-0.4-0.4-0.6-0.8-0.8-1.3S17.8,13.7,17.8,13.2z M19.6,13.1c0,1.1,0.3,2.1,0.8,2.9
	c0.6,0.9,1.3,1.3,2.1,1.3c0.4,0,0.7-0.1,1-0.3s0.6-0.5,0.9-0.8c0.3-0.4,0.5-0.8,0.6-1.4c0.2-0.5,0.2-1.1,0.2-1.6
	c0-0.5-0.1-1.1-0.2-1.6s-0.4-1-0.7-1.4c-0.5-0.7-1.2-1.1-2-1.1c-0.7,0-1.4,0.4-1.9,1.2C19.9,11,19.6,12,19.6,13.1z"/>
<path d="M28,3.9l2.8-0.4v10.9l0,0.7c0,0.4,0,0.8,0.1,1c0.1,0.2,0.2,0.4,0.3,0.5c0.2,0.2,0.5,0.3,1,0.4v0.2h-4.3v-0.2
	c0.4-0.1,0.7-0.1,0.8-0.2s0.3-0.3,0.4-0.5c0.1-0.1,0.1-0.4,0.2-0.7s0-0.7,0-1.3V6.8c0-0.7,0-1.1,0-1.4c0-0.3-0.1-0.5-0.2-0.7
	c-0.1-0.2-0.2-0.3-0.4-0.4c-0.2-0.1-0.4-0.1-0.7-0.1V3.9z"/>
<path d="M41.1,16.4l0.2,0.1c-0.2,0.7-0.8,1-1.6,1c-0.5,0-0.8-0.1-1.2-0.3c-0.2-0.1-0.4-0.4-0.6-0.8c-0.4,0.4-0.8,0.6-1,0.8
	c-0.4,0.2-0.9,0.4-1.5,0.4c-0.7,0-1.3-0.2-1.7-0.5S33,16.2,33,15.6c0-0.5,0.2-1,0.5-1.4c0.2-0.2,0.4-0.4,0.7-0.5s0.6-0.2,1.1-0.4
	c0.6-0.1,1-0.3,1.3-0.4s0.5-0.2,0.7-0.4c0.2-0.1,0.4-0.3,0.4-0.5s0.1-0.5,0.1-0.8c0-0.8-0.1-1.3-0.4-1.7c-0.1-0.2-0.3-0.3-0.5-0.4
	s-0.4-0.1-0.6-0.1c-0.3,0-0.5,0.1-0.7,0.2s-0.4,0.3-0.5,0.6l-0.2,0.6c-0.1,0.3-0.4,0.5-0.7,0.5c-0.2,0-0.4-0.1-0.6-0.2
	s-0.2-0.3-0.2-0.6c0-0.3,0.2-0.6,0.7-0.8C34.3,9.1,34.6,9,35,9c0.4-0.1,0.7-0.1,1.1-0.1c0.4,0,0.8,0.1,1.3,0.2s0.8,0.2,1.1,0.4
	c0.4,0.2,0.7,0.6,0.8,0.9c0.1,0.2,0.1,0.5,0.1,1V15c0,0.6,0,1,0.1,1.3c0.1,0.5,0.4,0.7,0.8,0.7c0.2,0,0.4,0,0.5-0.1
	S40.9,16.6,41.1,16.4z M37.8,12.5c-0.4,0.3-0.7,0.6-1.2,0.8c-0.5,0.3-0.8,0.4-1,0.6s-0.3,0.3-0.5,0.5c-0.3,0.4-0.5,0.8-0.5,1.3
	c0,0.4,0.1,0.8,0.4,1.1c0.2,0.3,0.5,0.4,0.9,0.4c0.3,0,0.6-0.1,0.9-0.3s0.5-0.5,0.6-0.8c0.2-0.4,0.3-1.1,0.3-1.9V12.5z"/>
<path d="M44,8.9c0.1,0.4,0.1,0.7,0.1,1.1v0.2C45,9.3,45.9,8.9,47,8.9c0.8,0,1.5,0.2,2,0.6c0.5,0.4,0.8,0.9,0.8,1.6v4.1
	c0,0.4,0,0.8,0.1,1c0.1,0.2,0.2,0.4,0.3,0.5c0.2,0.2,0.5,0.3,1,0.4v0.2h-4.3v-0.2c0.4-0.1,0.7-0.1,0.8-0.2s0.3-0.3,0.4-0.5
	c0.1-0.1,0.1-0.4,0.2-0.7c0-0.3,0-0.7,0-1.3v-2.1c0-0.7,0-1.2-0.1-1.6S48.1,10.2,48,10c-0.1-0.2-0.4-0.4-0.6-0.5
	c-0.3-0.1-0.6-0.2-0.9-0.2c-0.4,0-0.7,0.1-1,0.2c-0.3,0.1-0.6,0.3-0.7,0.6c-0.2,0.3-0.3,0.6-0.4,0.9c-0.1,0.3-0.1,0.9-0.1,1.6v1.9
	l0,0.7c0,0.4,0,0.8,0.1,1c0.1,0.2,0.2,0.4,0.3,0.5c0.2,0.2,0.5,0.3,1,0.4v0.2h-4.3v-0.2c0.4-0.1,0.7-0.1,0.8-0.2
	c0.2-0.1,0.3-0.3,0.4-0.5c0.1-0.1,0.1-0.4,0.2-0.7c0-0.3,0-0.7,0-1.3V12c0-0.7,0-1.1,0-1.4c0-0.3-0.1-0.5-0.2-0.7
	c-0.1-0.2-0.2-0.3-0.4-0.4c-0.2-0.1-0.4-0.1-0.7-0.2V9.2L44,8.9z"/>
<path d="M58.7,17.6c-0.1-0.3-0.1-0.7-0.1-1c-0.5,0.3-0.9,0.5-1.4,0.7s-0.9,0.2-1.4,0.2c-1,0-1.8-0.3-2.5-0.9c-0.4-0.4-0.8-0.9-1-1.4
	C52.1,14.6,52,14,52,13.3c0-0.7,0.1-1.4,0.4-2c0.3-0.6,0.6-1.1,1.1-1.5c0.7-0.6,1.6-0.9,2.6-0.9c0.5,0,0.9,0.1,1.3,0.2
	c0.4,0.1,0.8,0.4,1.2,0.8V6.2c0-0.7-0.1-1.2-0.4-1.5c-0.2-0.3-0.6-0.5-1.2-0.5V4l3-0.4v11.3c0,0.7,0.1,1.3,0.4,1.6
	c0.2,0.3,0.6,0.5,1.2,0.5v0.2L58.7,17.6z M58.6,13.1c0-0.9,0-1.6-0.1-2c-0.1-0.5-0.2-0.8-0.4-1.1c-0.2-0.2-0.4-0.4-0.7-0.6
	s-0.6-0.2-0.9-0.2c-0.7,0-1.3,0.3-1.8,1c-0.3,0.4-0.5,0.9-0.7,1.4s-0.3,1.1-0.3,1.7c0,0.6,0.1,1.1,0.2,1.6s0.4,1,0.7,1.4
	c0.5,0.7,1.1,1,1.8,1c0.3,0,0.7-0.1,1-0.3s0.6-0.4,0.7-0.7c0.2-0.3,0.3-0.7,0.4-1.2C58.6,14.6,58.6,14,58.6,13.1z"/>
<path d="M70.5,16.4l0.2,0.1c-0.2,0.7-0.8,1-1.6,1c-0.5,0-0.8-0.1-1.2-0.3c-0.2-0.1-0.4-0.4-0.6-0.8c-0.4,0.4-0.8,0.6-1,0.8
	c-0.4,0.2-0.9,0.4-1.5,0.4c-0.7,0-1.3-0.2-1.7-0.5s-0.6-0.8-0.6-1.4c0-0.5,0.2-1,0.5-1.4c0.2-0.2,0.4-0.4,0.7-0.5s0.6-0.2,1.1-0.4
	c0.6-0.1,1-0.3,1.3-0.4s0.5-0.2,0.7-0.4c0.2-0.1,0.4-0.3,0.4-0.5s0.1-0.5,0.1-0.8c0-0.8-0.1-1.3-0.4-1.7c-0.1-0.2-0.3-0.3-0.5-0.4
	s-0.4-0.1-0.6-0.1c-0.3,0-0.5,0.1-0.7,0.2s-0.4,0.3-0.5,0.6l-0.2,0.6c-0.1,0.3-0.4,0.5-0.7,0.5c-0.2,0-0.4-0.1-0.6-0.2
	s-0.2-0.3-0.2-0.6c0-0.3,0.2-0.6,0.7-0.8C63.7,9.1,64,9,64.4,9s0.7-0.1,1.1-0.1c0.4,0,0.8,0.1,1.3,0.2c0.4,0.1,0.8,0.2,1.1,0.4
	c0.4,0.2,0.7,0.6,0.8,0.9c0.1,0.2,0.1,0.5,0.1,1V15c0,0.6,0,1,0.1,1.3c0.1,0.5,0.4,0.7,0.8,0.7c0.2,0,0.4,0,0.5-0.1
	S70.3,16.6,70.5,16.4z M67.3,12.5c-0.4,0.3-0.7,0.6-1.2,0.8c-0.5,0.3-0.8,0.4-1,0.6s-0.3,0.3-0.5,0.5c-0.3,0.4-0.5,0.8-0.5,1.3
	c0,0.4,0.1,0.8,0.4,1.1c0.2,0.3,0.5,0.4,0.9,0.4c0.3,0,0.6-0.1,0.9-0.3s0.5-0.5,0.6-0.8c0.2-0.4,0.3-1.1,0.3-1.9V12.5z"/>
<path d="M13,21.9c-0.4,0-0.8,0-1.3,0c-1,0.1-1.7,0.2-2.2,0.4s-0.9,0.6-1.2,1c-0.3,0.5-0.5,1.1-0.7,1.9l-0.2,0l0.2-3.6h13.2l0.2,3.6
	l-0.2,0c-0.2-0.9-0.5-1.6-0.8-2.1c-0.4-0.5-0.9-0.8-1.6-1c-0.6-0.2-1.6-0.3-3.1-0.3v10c0,0.7,0,1.2,0.1,1.5s0.2,0.6,0.4,0.8
	c0.2,0.2,0.4,0.3,0.6,0.4s0.5,0.1,0.9,0.2V35H11v-0.2c0.4,0,0.7-0.1,0.9-0.2s0.4-0.2,0.6-0.4c0.2-0.2,0.3-0.5,0.4-0.8
	s0.1-0.8,0.1-1.5V21.9z"/>
<path d="M24.1,28c0.2-0.4,0.5-0.7,0.8-0.9c0.5-0.4,1.2-0.6,1.8-0.6c0.4,0,0.7,0.1,1,0.3c0.2,0.2,0.3,0.4,0.3,0.6
	c0,0.2-0.1,0.3-0.2,0.4S27.5,28,27.3,28c-0.2,0-0.4-0.1-0.6-0.3l-0.3-0.3c-0.2-0.3-0.5-0.4-0.8-0.4c-0.4,0-0.8,0.3-1,0.9
	s-0.4,1.4-0.4,2.4v1.8l0,0.7c0,0.4,0,0.8,0.1,1c0.1,0.2,0.2,0.4,0.3,0.5c0.2,0.2,0.5,0.3,1,0.4V35h-4.3v-0.2
	c0.4-0.1,0.7-0.1,0.8-0.2s0.3-0.3,0.4-0.5c0.1-0.1,0.1-0.4,0.2-0.7c0-0.3,0-0.7,0-1.3v-2.4c0-0.7,0-1.1,0-1.4c0-0.3-0.1-0.5-0.2-0.7
	c-0.1-0.2-0.2-0.3-0.4-0.4s-0.4-0.1-0.7-0.2v-0.2l2.5-0.4C24,27.1,24.1,27.6,24.1,28z"/>
<path d="M35.3,35.1c-0.1-0.4-0.1-0.8-0.1-1.2c-0.8,0.8-1.8,1.2-2.9,1.2c-0.8,0-1.5-0.2-2-0.6c-0.5-0.4-0.7-0.9-0.7-1.7v-3.4l0-0.7
	c0-0.4,0-0.8-0.1-1c-0.1-0.2-0.1-0.4-0.3-0.5c-0.2-0.2-0.5-0.3-1-0.4v-0.2H31v5c0,0.7,0,1.2,0.1,1.5c0,0.3,0.1,0.6,0.3,0.8
	c0.1,0.2,0.3,0.4,0.6,0.5c0.3,0.1,0.6,0.2,0.9,0.2c0.4,0,0.7-0.1,1-0.2c0.3-0.1,0.6-0.3,0.8-0.6c0.2-0.3,0.3-0.5,0.4-0.9
	c0.1-0.3,0.1-0.9,0.1-1.6v-1.9l0-0.7c0-0.4,0-0.8-0.1-1c0-0.2-0.1-0.4-0.3-0.5c-0.2-0.2-0.5-0.3-1-0.4v-0.2h2.9V32
	c0,0.7,0,1.1,0.1,1.4c0,0.3,0.1,0.5,0.2,0.7c0.1,0.2,0.3,0.3,0.4,0.4s0.4,0.1,0.7,0.2v0.2L35.3,35.1z"/>
<path d="M38.8,30.8c0-1.1,0.4-2,1.2-2.8c1-1,2.1-1.5,3.4-1.5s2.5,0.5,3.4,1.5c0.8,0.8,1.2,1.8,1.2,2.8c0,1-0.4,2-1.1,2.8
	c-0.9,1-2.1,1.5-3.5,1.5s-2.5-0.5-3.5-1.5c-0.4-0.4-0.6-0.8-0.8-1.3S38.8,31.3,38.8,30.8z M40.6,30.7c0,1.1,0.3,2.1,0.8,2.9
	c0.6,0.9,1.3,1.3,2.1,1.3c0.4,0,0.7-0.1,1-0.3c0.3-0.2,0.6-0.5,0.9-0.8c0.3-0.4,0.5-0.8,0.6-1.4s0.2-1.1,0.2-1.6
	c0-0.5-0.1-1.1-0.2-1.6s-0.4-1-0.7-1.4c-0.5-0.7-1.2-1.1-2-1.1c-0.7,0-1.4,0.4-1.9,1.2C40.9,28.7,40.6,29.6,40.6,30.7z"/>
<path d="M51.6,26.5c0.1,0.4,0.1,0.7,0.1,1.1v0.2c0.8-0.8,1.8-1.2,2.9-1.2c0.8,0,1.5,0.2,2,0.6c0.5,0.4,0.8,0.9,0.8,1.6v4.1
	c0,0.4,0,0.8,0.1,1s0.2,0.4,0.3,0.5c0.2,0.2,0.5,0.3,1,0.4V35h-4.3v-0.2c0.4-0.1,0.7-0.1,0.8-0.2c0.2-0.1,0.3-0.3,0.4-0.5
	c0.1-0.1,0.1-0.4,0.2-0.7s0-0.7,0-1.3V30c0-0.7,0-1.2-0.1-1.6c0-0.3-0.1-0.6-0.3-0.8c-0.1-0.2-0.4-0.4-0.6-0.5s-0.6-0.2-0.9-0.2
	c-0.4,0-0.7,0.1-1,0.2c-0.3,0.1-0.6,0.3-0.7,0.6c-0.2,0.3-0.3,0.6-0.4,0.9s-0.1,0.9-0.1,1.6v1.9l0,0.7c0,0.4,0,0.8,0.1,1
	c0.1,0.2,0.2,0.4,0.3,0.5c0.2,0.2,0.5,0.3,1,0.4V35h-4.3v-0.2c0.4-0.1,0.7-0.1,0.8-0.2s0.3-0.3,0.4-0.5c0.1-0.1,0.1-0.4,0.2-0.7
	c0-0.3,0-0.7,0-1.3v-2.4c0-0.7,0-1.1,0-1.4c0-0.3-0.1-0.5-0.2-0.7c-0.1-0.2-0.2-0.3-0.4-0.4s-0.4-0.1-0.7-0.2v-0.2L51.6,26.5z"/>
<path d="M60,38c0,0,1.5,0,2.6,0c0.9,0,1.8,0,2.1-0.3c0.5-0.4,0.8-0.9,0.8-1.5c0-0.5-0.2-0.9-0.5-1.1s-0.9-0.4-1.5-0.4h-1.6
	c-0.6,0-1.2-0.2-1.5-0.5c-0.4-0.3-0.6-0.7-0.6-1.1c0-0.5,0.2-0.8,0.6-1.1c0.2-0.1,0.6-0.3,1.2-0.4c-0.6-0.3-1-0.6-1.3-1
	s-0.5-0.9-0.5-1.4c0-0.7,0.2-1.2,0.7-1.8c0.3-0.3,0.6-0.5,1-0.7s0.8-0.3,1.2-0.3c0.6,0,1.3,0.2,1.9,0.7c0.3-0.2,0.6-0.4,0.8-0.5
	c0.2-0.1,0.5-0.2,0.8-0.2c0.3,0,0.6,0.1,0.8,0.2c0.2,0.2,0.4,0.4,0.4,0.6c0,0.1,0,0.3-0.1,0.4c-0.1,0.1-0.2,0.2-0.3,0.2
	c-0.2,0-0.4-0.1-0.6-0.3l-0.2-0.3c-0.1-0.2-0.3-0.2-0.5-0.2c-0.2,0-0.5,0.1-0.8,0.4c0.5,0.6,0.8,1.3,0.8,2c0,0.9-0.4,1.5-1.1,2
	c-0.4,0.2-0.8,0.4-1.2,0.5c-0.1,0-0.5,0.1-1.2,0.1c-1,0.1-1.4,0.3-1.4,0.8c0,0.4,0.4,0.6,1.2,0.6h1.6c0.6,0,1,0.1,1.4,0.2
	s0.7,0.3,1,0.5c0.6,0.4,0.9,1.1,0.9,2.2c0,0.8-0.3,1.5-1,2c-0.7,0.5-1.3,0.8-3,0.8c-1.4,0-2.1,0-2.9,0 M61.3,29.3
	c0,0.7,0.1,1.3,0.4,1.7c0.3,0.4,0.7,0.7,1.1,0.7c0.5,0,0.8-0.2,1.1-0.7s0.4-1,0.4-1.8c0-0.8-0.2-1.4-0.5-1.9c-0.2-0.4-0.6-0.5-1-0.5
	c-0.5,0-0.8,0.2-1.1,0.7c-0.1,0.2-0.3,0.5-0.3,0.9C61.3,28.6,61.3,29,61.3,29.3z"/>
<line class="st0" x1="0.5" y1="38.5" x2="60" y2="38.5"/>
<line class="st0" x1="0.5" y1="38.5" x2="0.5" y2="0.5"/>
<line class="st0" x1="0.5" y1="0.5" x2="74.5" y2="0.5"/>
<line class="st0" x1="74.5" y1="38.5" x2="74.5" y2="0.5"/>
<line class="st0" x1="70.5" y1="38.5" x2="74.5" y2="38.5"/>
</svg>
