<?xml version="1.0" encoding="utf-8"?>
<!-- Generator: Adobe Illustrator 21.1.0, SVG Export Plug-In . SVG Version: 6.00 Build 0)  -->
<svg version="1.1" id="Layer_1" xmlns="http://www.w3.org/2000/svg" xmlns:xlink="http://www.w3.org/1999/xlink" x="0px" y="0px"
	 viewBox="0 0 36 13" style="enable-background:new 0 0 36 13;" xml:space="preserve">
<title>side-line-left</title>
<path d="M0,0l0,3c0,0,1.2,0,3.1,0.1C3.7,3.2,4.3,3.4,5,3.5c4.9,1.3,9.4,3.9,13,7.5c-1.9-2.8-4.3-5.1-7.1-7c0.7,0.1,1.4,0.3,2.1,0.5
	c4.9,1.3,9.4,3.9,13,7.5c-2-3-4.7-5.5-7.7-7.4C18.9,4.8,19.4,4.9,20,5c8,2,16,8,16,8S29,6,21,3C15.8,1.1,8.5,0.4,4.1,0.2
	C3.5,0.1,2.9,0,2.4,0S1.4,0,1,0C0.3,0,0,0,0,0z"/>
</svg>
